{"glyphs":{":":{"x_min":0,"x_max":296,"ha":296,"o":"m 189 55 q 189 43 188 19 l 181 19 q 178 19 162 24 q 146 29 137 29 q 123 29 96 18 q 70 6 55 6 q 42 6 30 11 q 24 26 24 40 q 24 100 30 137 l 35 141 l 44 141 q 62 140 94 152 q 125 165 141 165 q 167 165 176 153 q 189 136 189 55 z m 188 456 q 188 422 181 404 l 176 399 q 153 399 120 387 q 88 375 75 375 q 37 375 29 403 q 27 432 25 461 q 23 478 23 493 q 23 508 25 522 l 30 523 q 46 512 70 512 q 86 512 115 524 q 144 535 160 535 q 171 535 183 531 q 188 518 188 504 q 188 496 188 480 q 188 464 188 456 z m 283 456 q 283 471 271 503 q 241 513 218 513 q 215 524 209 546 q 179 556 160 556 q 142 556 112 545 q 83 534 70 534 q 59 534 43 544 q 27 543 -4 543 q -9 513 -9 491 q -9 423 -3 403 q 11 360 61 354 q 72 312 136 312 q 165 312 188 325 l 185 324 q 210 336 255 336 l 271 350 q 283 386 283 456 z m 213 143 q 196 186 140 186 q 129 186 84 171 l 81 170 q 60 161 21 162 q 12 155 -1 137 l -1 138 q -8 108 -8 47 q -8 25 4 -3 q 31 -15 56 -15 q 59 -25 66 -45 q 94 -58 118 -58 q 138 -58 168 -47 q 199 -36 203 -36 q 211 -36 235 -45 l 279 -45 q 283 -17 283 12 q 283 77 276 97 q 262 139 213 143 z m 149 130 q 148 130 146 128 l 144 127 z m 86 173 l 81 170 l 84 171 q 84 172 86 173 z"},"$":{"x_min":0,"x_max":791,"ha":791,"o":"m 424 110 q 491 118 511 124 q 563 141 563 181 q 563 188 561 196 q 564 204 564 211 q 564 241 523 261 q 489 277 456 277 q 439 277 423 273 q 418 245 418 213 q 418 138 424 110 z m 334 358 q 337 388 337 428 l 337 484 q 337 500 334 520 q 189 504 189 443 q 189 438 188 430 q 188 422 188 417 q 188 387 228 368 q 260 352 295 352 q 315 352 334 358 z m 416 -129 q 393 -146 362 -148 q 343 -144 337 -128 q 332 -38 339 29 q 279 -4 204 -4 q 114 -4 71 53 l 61 54 l 45 71 l 44 92 q 43 111 56 128 q 70 144 89 150 q 105 116 152 96 q 192 78 234 78 q 286 78 339 97 q 328 187 341 271 l 301 270 q 172 265 120 312 q 65 360 65 488 q 65 536 143 560 q 198 578 260 578 q 271 578 298 579 q 322 580 336 580 q 333 621 333 665 q 333 680 346 721 q 369 740 401 740 q 401 740 415 733 q 429 706 421 598 q 475 626 540 626 q 615 626 650 577 l 659 577 l 674 563 l 676 544 q 676 500 641 477 q 580 547 513 547 q 474 547 421 530 q 427 441 419 357 l 449 358 q 521 360 593 332 q 684 297 684 235 q 684 217 675 196 q 684 163 684 149 q 684 79 580 58 q 539 49 423 48 q 428 -52 428 -91 q 428 -98 416 -129 z m 518 -16 q 778 -24 778 114 q 778 206 738 262 q 699 318 609 352 l 610 351 q 571 367 515 375 l 515 473 l 536 478 l 563 483 l 573 484 l 600 479 q 618 460 631 441 l 646 451 q 674 428 694 399 q 719 415 742 440 q 771 473 771 497 q 771 502 770 507 q 765 522 755 538 q 741 561 729 556 q 717 566 668 598 l 666 598 q 620 647 518 647 l 518 655 l 516 669 q 515 682 506 700 q 503 706 448 734 q 394 762 383 762 q 301 762 301 641 q 301 626 303 601 l 269 600 l 249 599 q 208 598 174 592 q 122 582 84 559 q 34 528 34 484 q 34 386 72 328 q 112 265 205 233 l 204 234 q 246 216 304 208 q 304 138 308 110 q 268 99 235 99 q 210 99 189 108 l 170 136 l 150 129 q 123 150 108 178 q 13 151 13 83 q 13 72 28 50 q 42 28 53 32 q 68 18 114 -10 l 115 -10 q 171 -68 269 -68 q 282 -68 295 -66 l 294 -66 l 303 -65 l 303 -80 q 303 -126 304 -120 l 321 -153 q 347 -169 366 -170 q 383 -194 392 -201 q 406 -212 430 -212 q 521 -212 521 -112 q 521 -98 519 -63 q 517 -32 518 -16 z m 281 375 l 281 376 q 281 380 285 388 q 283 393 283 399 q 283 420 304 433 l 304 432 l 306 433 l 306 401 q 306 388 304 374 q 302 373 301 373 q 288 373 281 375 z m 529 196 q 531 190 531 184 q 531 161 513 148 l 513 193 q 513 202 514 213 l 518 213 q 521 213 525 213 q 530 212 533 212 l 533 210 q 533 209 529 196 z"},"?":{"x_min":0,"x_max":690,"ha":690,"o":"m 340 35 q 252 9 218 9 q 194 9 194 25 l 194 60 q 194 95 201 110 q 290 131 329 130 l 336 130 q 347 114 347 70 q 347 54 340 35 z m 63 569 l 43 586 l 46 587 q 31 619 31 659 q 31 670 46 672 l 56 667 q 89 693 193 693 q 251 693 295 686 q 354 709 417 709 q 484 709 530 679 q 583 645 583 581 q 583 570 580 550 q 578 531 578 520 q 578 441 489 386 q 467 373 331 316 q 331 305 332 287 q 333 266 333 258 q 333 223 320 195 l 319 206 q 290 186 245 186 q 214 186 207 212 q 203 223 203 267 q 203 306 215 337 q 280 359 354 409 q 449 473 444 521 q 443 529 441 539 q 442 543 444 552 q 446 560 446 565 q 446 591 420 609 q 396 624 369 624 q 346 624 302 615 q 258 606 233 606 q 110 606 73 564 q 70 567 64 570 z m 440 26 q 440 78 419 109 l 375 108 l 368 131 q 390 145 406 145 q 410 145 413 144 q 423 176 425 203 q 425 233 425 263 q 564 310 610 353 q 676 413 676 538 q 676 617 583 677 q 499 730 415 730 q 397 730 376 727 l 378 728 q 264 714 191 714 q 95 714 56 695 l 56 696 q 34 693 11 680 l -1 655 q -1 654 7 615 q 12 589 11 576 q 36 558 68 528 l 71 533 l 78 530 l 78 530 q 104 510 130 485 q 129 489 134 490 q 139 490 140 487 q 190 541 285 541 q 295 541 318 540 q 340 540 353 540 q 364 540 384 548 q 405 556 414 558 q 413 556 413 551 l 411 548 l 411 549 l 409 536 q 415 529 415 520 q 415 499 387 469 q 365 445 345 433 l 346 433 q 308 411 269 389 q 225 365 189 352 q 173 312 173 252 q 173 210 183 191 q 198 167 239 165 l 250 139 l 235 137 l 238 138 q 201 132 176 126 q 163 94 163 25 q 163 1 192 -7 q 209 -9 225 -12 q 235 -27 245 -43 q 253 -54 290 -54 q 297 -54 315 -48 q 330 -42 339 -45 q 375 -39 434 -21 q 433 -14 436 2 q 440 19 440 26 z"},"<":{"x_min":0,"x_max":940,"ha":940,"o":"m 213 299 q 213 299 200 296 q 279 252 432 226 q 638 192 676 181 q 700 173 725 165 q 765 152 776 152 q 779 152 780 153 q 828 128 832 68 l 815 58 q 704 106 436 168 q 190 225 59 292 l 53 314 l 58 334 q 70 343 83 342 q 127 361 210 386 q 303 414 339 428 q 609 530 815 575 l 832 563 q 833 506 781 484 l 776 492 q 695 492 562 442 q 499 419 347 349 q 237 299 213 299 z m 853 582 q 829 597 814 597 q 771 597 596 546 l 598 546 q 563 536 299 443 q 39 350 34 346 q 21 316 21 314 q 43 243 218 177 q 334 134 566 78 q 798 22 839 7 l 836 8 q 865 -6 868 -6 q 891 -6 914 5 l 926 31 l 923 47 l 924 45 q 907 103 840 139 l 836 137 q 817 160 778 182 l 770 176 q 671 209 595 224 l 598 223 q 552 235 479 246 q 379 261 360 264 q 447 305 623 378 l 621 377 q 755 418 828 422 l 839 415 q 912 446 925 499 l 924 497 q 926 497 926 513 q 926 513 916 539 q 893 554 876 554 q 869 554 864 552 q 865 554 853 582 z"},"'":{"x_min":0,"x_max":273,"ha":273,"o":"m 165 719 q 165 683 154 593 q 143 491 133 478 q 108 471 59 462 q 28 486 28 656 q 28 667 25 691 q 22 715 23 728 q 31 730 40 730 q 60 730 89 736 q 118 741 133 741 q 154 741 165 728 z m 259 691 q 234 717 196 719 l 196 734 q 171 762 129 762 q 105 762 59 755 q 9 747 -9 739 l -9 717 q -9 511 21 462 q 27 453 48 439 l 75 442 q 84 419 88 414 q 92 409 110 396 q 126 398 158 405 l 156 404 q 177 409 218 420 q 236 445 249 551 q 259 635 259 691 z"},"=":{"x_min":0,"x_max":956,"ha":956,"o":"m 844 196 q 832 182 749 182 q 717 182 664 184 q 612 186 605 186 l 498 186 q 448 186 349 182 q 250 177 200 177 q 60 177 46 184 l 38 195 l 37 207 q 37 221 53 243 q 58 250 296 260 q 505 268 581 268 q 594 268 632 270 q 671 272 694 272 q 836 272 844 196 z m 848 434 q 845 387 818 377 q 815 376 560 369 q 302 362 269 362 q 263 362 234 360 q 205 359 185 359 q 32 359 35 422 l 36 434 l 43 443 q 58 446 157 444 q 287 440 284 440 q 368 440 536 446 q 704 453 788 453 q 835 453 848 434 z m 895 427 q 880 427 876 436 q 871 446 867 456 q 846 469 828 470 l 833 469 l 825 470 l 819 471 q 794 474 785 474 q 664 474 422 470 q 179 467 58 467 q 34 467 14 455 l 4 428 l 9 405 l 8 407 q 18 376 32 365 q 43 356 76 347 q 114 296 237 296 q 256 296 289 297 q 322 298 335 298 q 387 298 632 305 q 891 312 896 315 q 925 333 936 362 l 936 361 q 942 371 943 384 l 931 413 q 910 426 890 428 z m 721 287 l 723 287 l 589 289 q 544 290 306 282 q 62 274 52 271 q 35 265 20 244 q 5 222 5 204 q 5 180 26 168 q 43 157 68 158 l 80 131 q 106 114 165 114 l 274 114 q 374 114 578 116 q 781 119 883 119 q 939 119 939 162 q 939 172 934 180 l 935 179 q 916 231 868 238 q 846 273 803 282 q 791 285 721 287 z m 150 304 q 151 304 153 303 l 146 304 z"},"a":{"x_min":0,"x_max":758,"ha":758,"o":"m 508 294 q 512 296 446 296 q 388 296 314 278 q 230 259 192 230 q 155 202 155 132 q 155 109 185 96 q 209 85 235 85 q 250 85 278 89 q 306 93 320 93 q 365 93 437 121 q 522 153 522 189 q 522 202 520 227 q 519 252 519 266 q 519 280 508 294 z m 495 365 l 500 365 q 504 367 511 371 q 506 370 495 365 z m 499 398 q 499 428 478 444 q 457 461 426 461 q 400 461 350 453 q 300 445 273 445 q 199 445 113 406 q 106 411 103 410 q 93 416 89 424 q 89 425 89 425 q 74 454 75 473 l 76 491 l 88 505 l 98 500 q 139 530 220 530 q 276 530 326 518 q 396 539 468 539 q 626 539 626 424 q 626 398 618 368 q 632 354 642 238 q 649 151 649 92 q 649 66 641 39 q 648 36 648 36 q 650 36 648 31 l 644 27 q 631 19 621 19 q 594 19 560 28 q 521 38 506 54 q 517 58 519 56 q 522 52 523 52 q 523 52 521 60 q 515 87 508 99 q 447 43 394 29 q 358 20 263 20 q 247 20 214 14 q 182 9 166 9 q 120 9 81 38 q 37 70 37 115 q 37 129 43 157 q 49 185 49 201 q 49 293 233 337 q 359 367 494 365 q 499 375 499 398 z m 19 174 q 19 169 14 155 q 9 141 9 135 l 9 136 l 6 116 q 6 51 94 -4 q 174 -54 243 -54 q 248 -54 290 -49 q 328 -44 330 -45 l 326 -45 q 350 -48 380 -48 q 406 -48 424 -44 l 420 -44 q 484 -35 540 1 q 574 -28 638 -39 l 636 -39 q 659 -44 680 -44 q 689 -44 708 -40 q 727 -36 738 -37 l 735 -26 l 741 -23 l 744 -9 q 738 3 738 4 l 724 14 l 739 8 l 741 48 q 744 92 737 192 q 728 310 714 330 q 718 353 718 382 q 718 461 630 514 q 554 560 469 560 q 444 560 419 557 l 420 558 q 413 557 372 548 q 341 541 325 541 q 308 541 274 546 q 239 551 221 551 q 144 551 98 528 l 95 530 q 43 511 43 474 q 43 457 53 431 l 58 415 l 70 403 l 89 388 l 94 388 l 104 381 l 118 362 l 133 360 l 151 346 q 157 348 164 341 q 87 321 54 286 q 19 248 19 174 z m 490 198 q 490 181 483 174 l 483 175 q 429 130 340 117 l 343 117 q 315 114 304 117 q 262 107 251 107 l 251 108 l 253 111 l 254 111 q 255 117 255 134 q 255 180 355 207 q 388 216 486 231 l 484 230 l 489 230 q 490 225 490 225 z m 204 349 l 205 349 l 196 348 q 281 380 326 380 q 334 380 349 379 q 364 378 371 378 q 315 368 204 349 z m 411 382 q 442 391 468 394 l 468 391 q 467 390 466 386 q 439 386 411 382 z m 495 384 l 499 377 l 491 383 z m 738 3 q 738 3 738 3 l 739 3 l 739 7 q 739 6 738 6 q 738 5 738 4 z m 676 45 l 676 45 q 675 45 675 46 l 675 46 q 676 47 676 50 z m 331 -43 l 333 -42 l 333 -43 l 325 -44 q 326 -43 331 -43 z"},"L":{"x_min":0,"x_max":784,"ha":784,"o":"m 46 687 l 51 697 q 64 700 64 700 q 94 700 131 687 q 174 672 185 651 q 174 650 174 650 l 178 650 q 178 245 183 110 q 180 109 180 108 q 180 108 190 105 q 213 99 281 99 q 313 99 376 109 q 438 119 470 119 q 621 119 630 120 q 647 105 646 105 l 640 116 q 660 98 674 76 l 676 48 l 676 34 l 663 26 l 648 35 q 574 34 426 29 q 395 27 308 13 q 235 2 189 2 q 106 2 53 31 q 43 76 43 128 l 43 577 q 43 576 47 635 q 49 681 46 687 z m 11 137 q 12 75 23 20 q 51 4 81 -4 l 85 -22 q 162 -62 253 -62 q 300 -62 384 -49 q 475 -35 515 -33 q 577 -34 700 -30 l 713 -38 q 738 -36 761 -24 q 771 -5 770 7 l 768 37 q 755 63 734 80 l 735 77 q 725 77 710 101 l 693 99 l 671 122 l 673 120 q 662 120 648 144 q 614 140 529 141 q 454 142 411 135 l 414 136 q 300 121 275 121 q 275 198 273 354 q 271 509 271 587 l 291 587 l 271 616 l 271 629 l 259 629 q 237 650 209 661 l 209 671 l 196 671 q 142 722 66 722 q 66 722 30 714 q 11 681 11 578 z"},"3":{"x_min":0,"x_max":779,"ha":779,"o":"m 481 404 l 480 401 q 548 398 603 366 q 671 327 671 265 q 671 241 664 227 q 671 204 671 180 q 671 71 551 41 q 501 29 340 29 q 325 29 272 10 q 220 -9 192 -9 q 96 -9 61 52 q 60 50 49 48 l 34 64 l 34 83 q 34 105 49 133 q 47 134 48 135 l 49 134 q 54 134 60 142 q 67 151 68 151 q 69 149 71 144 q 71 143 76 145 q 91 113 134 96 q 169 81 212 81 q 275 81 336 110 l 374 109 q 433 107 478 126 q 538 152 538 205 q 538 285 517 314 q 490 348 413 348 q 401 348 355 351 q 322 352 296 350 l 271 361 l 267 352 l 265 374 q 263 397 278 411 l 281 411 q 310 411 390 436 q 470 461 493 478 q 523 501 519 557 l 517 584 q 486 627 446 627 q 405 627 346 600 q 322 605 291 605 q 148 605 103 541 q 92 548 91 547 l 76 566 q 75 568 75 569 q 60 598 59 642 l 74 654 l 88 646 q 114 677 165 687 q 193 693 254 693 q 305 693 351 683 q 422 713 503 713 q 556 713 604 682 q 658 647 658 597 q 658 564 649 541 q 655 526 655 513 q 655 469 587 438 q 566 429 481 404 z m 503 734 q 503 734 465 731 l 468 732 q 399 726 346 706 q 304 715 255 715 q 132 715 38 660 l 28 638 q 29 628 37 594 q 43 566 43 552 q 56 545 80 519 l 85 521 q 101 512 116 502 q 124 497 143 477 l 148 479 l 173 462 q 229 541 341 541 q 375 541 413 534 q 457 553 488 560 l 488 558 q 488 553 485 539 q 484 529 486 518 q 472 486 424 470 l 426 470 q 301 435 280 435 q 273 435 269 436 q 234 410 234 370 q 234 366 240 335 q 253 321 269 315 l 275 322 l 284 313 l 298 314 q 303 294 307 288 q 314 279 331 273 l 342 283 l 346 270 l 404 277 l 481 285 l 501 283 q 505 263 508 243 q 512 220 508 204 q 488 130 374 130 q 353 130 328 133 q 267 103 214 103 l 189 106 q 182 114 160 121 q 146 125 150 141 l 129 147 q 121 155 91 159 q 68 162 72 177 l 44 167 l 23 152 q 25 137 12 108 q 0 78 1 74 q 19 20 45 26 q 61 9 103 -16 l 109 -16 q 169 -79 269 -72 l 281 -71 l 279 -71 q 306 -68 347 -55 q 395 -39 413 -35 q 431 -31 554 -25 q 652 -21 699 3 q 765 38 765 124 q 765 152 761 173 l 761 173 l 759 183 q 759 188 762 201 q 765 214 765 223 q 765 273 724 310 q 685 339 645 368 q 715 388 737 439 q 751 473 751 555 q 751 618 657 679 q 570 734 503 734 z"},";":{"x_min":0,"x_max":400,"ha":400,"o":"m 222 166 q 274 166 290 139 q 248 71 168 -66 q 154 -94 125 -147 q 109 -171 54 -171 q 33 -171 23 -154 q 36 -109 75 -7 q 118 106 134 131 q 144 147 174 157 q 200 166 222 166 z m 258 439 q 258 414 250 401 q 224 397 174 384 q 120 368 117 368 q 108 368 99 371 q 87 388 88 436 l 88 468 q 88 481 90 496 l 95 501 q 116 502 160 517 q 204 532 229 532 q 243 532 256 527 q 259 511 259 495 q 259 485 258 467 q 258 449 258 439 z m 70 60 l 70 61 q 58 32 26 -53 q -9 -150 -9 -158 q 11 -190 54 -192 l 54 -201 q 76 -235 129 -235 q 173 -235 198 -214 q 217 -198 240 -153 l 239 -154 q 300 -41 386 95 q 367 128 323 139 q 296 187 214 187 q 152 187 118 151 q 96 127 70 60 z m 353 452 q 353 472 349 497 q 312 511 289 511 q 288 520 286 540 q 250 553 229 553 q 201 553 154 539 q 103 523 80 521 q 70 514 59 496 l 59 498 q 56 483 56 469 l 56 433 q 56 384 75 354 q 101 347 123 347 q 129 325 138 312 q 164 304 178 304 q 192 304 257 321 q 318 336 339 344 q 350 362 348 370 l 349 371 l 349 371 q 353 385 353 452 z"},"J":{"x_min":0,"x_max":609,"ha":609,"o":"m 502 595 q 502 536 493 403 q 486 278 487 212 l 479 201 q 484 164 484 164 q 484 74 388 41 q 330 22 213 22 q 159 -12 115 -12 q 74 -12 50 23 l 45 22 l 40 19 l 28 32 l 28 48 q 28 86 51 113 q 56 110 65 118 q 89 78 131 78 q 150 78 173 88 q 196 99 196 99 q 284 104 312 119 q 355 140 355 204 q 355 224 351 248 l 355 249 l 354 250 q 361 315 362 426 q 364 560 366 603 l 368 604 l 356 602 q 341 619 341 639 q 341 671 379 688 q 407 701 443 701 q 485 701 497 667 q 502 652 502 595 z m 443 722 q 404 722 362 704 q 309 681 309 647 q 309 614 333 585 q 329 535 329 425 q 328 321 324 264 l 318 263 q 325 218 325 193 q 325 143 274 128 q 248 120 183 120 q 171 113 146 101 l 134 121 l 118 104 q 94 124 71 163 l 40 131 l 31 133 q 20 119 8 94 q -6 64 -6 47 q -6 43 -5 40 q 11 -8 35 -3 q 88 -47 98 -45 q 131 -76 186 -76 q 211 -76 239 -62 q 277 -45 288 -42 q 379 -28 471 -14 q 580 11 580 97 q 580 121 573 150 q 583 166 590 341 q 595 468 595 549 q 595 612 588 633 q 574 672 525 679 q 522 702 492 714 q 470 722 443 722 z"},"V":{"x_min":0,"x_max":1014,"ha":1014,"o":"m 25 688 l 41 700 q 71 701 110 686 q 150 670 174 649 q 180 644 307 411 q 440 168 475 122 q 474 108 480 93 q 522 141 624 368 q 690 521 756 674 q 760 675 764 671 q 785 708 863 708 q 862 708 891 704 l 906 688 l 894 674 l 895 671 q 837 557 715 332 q 561 47 543 34 q 512 12 414 12 q 361 12 206 313 q 116 500 25 688 z m 398 -8 q 430 -53 488 -53 q 522 -53 565 -45 q 618 -35 634 -19 q 669 14 814 289 q 993 630 1000 642 l 979 675 l 938 686 l 930 708 q 908 729 854 729 q 780 729 746 695 l 733 695 q 673 550 543 268 l 543 269 l 503 182 q 425 322 273 603 l 273 600 l 271 606 q 271 604 271 610 q 271 613 269 612 q 266 612 268 610 q 248 638 219 648 l 220 648 q 220 653 205 653 q 194 653 180 670 q 165 687 156 690 l 158 690 l 150 694 l 121 704 l 123 704 q 76 722 49 722 q 49 722 11 713 l -8 684 q 92 464 179 298 q 338 -4 398 -8 z m 271 604 l 273 603 l 272 604 q 272 605 271 608 z m 210 646 l 209 647 l 209 650 q 210 646 210 646 z m 793 683 l 792 683 q 791 683 791 685 q 791 684 792 684 q 792 683 793 683 z"},"\"":{"x_min":0,"x_max":535,"ha":535,"o":"m 173 654 q 173 618 163 557 q 151 486 138 467 q 120 461 105 461 q 54 461 51 476 q 45 504 36 658 q 35 669 30 692 q 25 715 25 727 q 25 736 49 736 q 57 736 71 734 q 85 732 93 732 q 156 732 173 717 z m 426 728 q 426 726 428 726 q 402 588 402 492 q 402 482 398 473 q 387 471 376 471 q 372 471 328 476 q 291 480 281 548 q 277 573 277 648 q 277 661 278 687 q 279 713 279 726 q 295 742 356 742 l 377 742 q 416 742 426 728 z m -6 722 q -9 698 2 598 q 13 505 20 472 q 27 440 80 440 q 88 409 112 401 q 124 397 166 397 q 190 397 223 407 q 232 418 240 439 l 240 438 q 242 438 244 447 l 256 511 q 277 460 325 454 q 339 417 400 410 l 398 411 q 423 407 438 407 q 458 407 483 413 q 495 432 495 458 l 495 497 q 495 534 506 596 q 519 668 521 693 q 507 702 493 712 q 481 719 458 720 q 457 720 459 735 q 424 756 422 757 q 407 763 378 763 q 326 763 308 761 q 270 755 248 733 q 248 723 245 696 q 234 703 204 708 l 204 725 q 167 757 48 757 q 17 757 -5 734 z m 334 440 z m 271 483 z"},"7":{"x_min":0,"x_max":844,"ha":844,"o":"m 718 693 l 735 677 l 735 656 q 735 630 530 358 q 406 197 283 35 q 255 -3 190 -3 q 149 -3 134 7 l 129 20 q 149 50 191 98 q 240 152 256 174 q 281 206 417 395 q 515 530 584 612 q 528 618 490 618 q 450 618 374 608 q 298 599 261 599 q 197 601 71 598 l 73 598 l 65 594 q 25 633 28 684 l 40 694 l 56 684 q 85 685 123 686 l 199 686 q 260 686 301 689 q 327 691 432 704 q 512 713 564 713 q 646 713 706 690 z m 559 735 q 501 735 406 724 l 408 724 q 327 715 225 715 q 365 716 44 716 q 26 716 4 701 q -4 684 -4 669 q -4 623 60 560 l 79 572 q 95 545 123 518 l 150 535 q 180 538 227 536 q 296 535 304 535 q 337 535 394 541 l 410 542 l 408 541 l 498 552 q 497 550 307 285 q 192 123 101 31 q 98 27 98 20 q 98 -19 160 -23 l 168 -45 q 190 -66 253 -66 q 326 -66 389 -3 q 407 15 486 123 l 485 123 q 633 329 716 440 l 715 440 q 748 481 781 522 q 819 571 829 611 l 828 609 q 830 609 830 624 q 830 656 781 673 l 771 671 q 769 671 755 695 q 749 704 719 716 l 709 713 q 641 735 559 735 z m 114 47 l 110 42 l 111 43 q 112 44 114 47 z m 176 4 q 175 3 174 1 l 173 0 z"},"S":{"x_min":0,"x_max":880,"ha":880,"o":"m 409 32 q 386 32 326 13 q 266 -6 235 -6 q 124 -6 69 63 l 55 59 q 36 67 36 79 q 36 128 55 158 l 53 165 l 63 167 q 70 169 89 178 q 114 134 170 108 q 220 85 275 85 q 310 85 376 96 q 441 107 477 107 q 533 107 576 121 q 638 141 638 182 q 638 259 582 289 q 541 312 459 312 q 439 312 402 310 q 365 309 349 309 q 204 309 143 354 q 72 406 72 546 q 72 641 208 666 q 255 674 419 674 q 439 674 493 692 q 547 709 575 709 q 685 709 739 646 l 753 650 l 770 632 q 771 590 750 553 l 751 552 l 748 551 l 730 537 q 726 540 715 535 q 695 576 644 599 q 599 619 548 619 q 518 619 462 608 q 406 598 376 598 q 208 598 208 513 q 208 433 274 413 q 302 405 408 405 q 540 405 592 396 q 680 382 723 333 q 772 275 772 158 q 772 31 512 31 q 490 31 455 31 q 420 32 409 32 z m 305 428 q 305 427 300 479 l 309 501 q 338 533 403 533 q 417 533 445 532 q 473 530 485 530 q 503 530 546 543 q 588 556 610 556 q 646 556 665 542 q 684 528 701 495 l 720 507 q 748 484 764 452 l 786 467 l 793 464 q 823 485 826 486 q 833 489 864 488 l 846 511 q 864 544 864 581 q 864 611 818 632 l 813 630 q 789 650 755 674 l 750 672 q 683 731 573 731 q 533 731 462 714 q 390 696 351 696 q 189 696 111 657 l 114 658 q 36 624 40 550 l 43 509 l 46 494 l 50 485 l 49 487 l 50 479 l 50 461 q 50 418 79 379 q 94 359 116 344 q 138 330 160 316 q 177 302 216 277 q 266 250 353 247 q 368 246 476 247 q 551 247 599 240 q 609 208 609 197 q 609 189 606 183 l 598 161 q 566 128 500 128 q 483 128 451 130 q 419 133 405 133 q 387 133 344 120 q 300 106 278 106 q 208 106 171 158 l 171 187 l 140 166 q 122 181 109 201 l 109 229 l 46 187 q 21 185 21 183 q 21 182 22 175 q 23 168 23 161 q 23 152 14 126 q 5 101 5 88 q 5 69 21 53 q 37 37 55 37 q 68 37 84 19 q 102 -2 111 -6 l 118 -5 q 185 -70 299 -70 q 340 -70 415 -52 q 490 -33 529 -33 q 680 -33 742 -17 q 866 17 866 124 q 866 207 840 255 q 814 303 744 350 q 640 421 522 421 q 506 421 472 420 q 437 419 417 419 q 358 419 305 428 z"},"}":{"x_min":0,"x_max":768,"ha":768,"o":"m 43 717 l 52 730 q 125 725 153 673 q 177 672 217 674 q 265 675 281 675 q 360 675 389 641 q 410 616 410 560 q 410 550 410 530 q 409 510 409 500 q 409 427 440 390 q 463 363 523 348 q 613 326 616 325 q 660 307 660 268 q 660 255 645 248 q 632 247 609 250 q 583 253 573 253 q 439 253 419 144 q 406 44 392 -56 q 347 -161 153 -155 q 124 -193 83 -193 q 73 -193 51 -185 l 43 -167 l 35 -170 l 25 -150 q 30 -116 60 -84 q 98 -93 141 -93 q 219 -93 248 -76 q 277 -59 282 -17 q 283 -9 283 88 q 283 185 393 258 q 417 269 468 294 l 473 297 l 468 297 q 444 297 394 315 q 358 328 333 347 q 281 383 281 441 q 281 455 285 488 q 289 522 289 542 q 289 593 196 608 q 128 617 60 626 q 25 679 25 709 q 25 730 43 717 z m -6 706 q -6 672 36 609 l 79 598 l 99 567 q 128 558 211 547 l 210 548 q 261 540 261 514 q 261 507 255 480 q 249 452 249 431 q 249 384 298 342 q 303 338 386 281 q 290 224 269 159 q 258 125 258 -7 q 258 -38 233 -55 q 197 -71 143 -71 q 101 -71 48 -59 q -6 -117 -6 -148 q -6 -155 6 -172 q 18 -190 25 -197 l 26 -196 q 47 -210 64 -213 l 88 -240 l 89 -239 q 110 -257 144 -257 q 193 -257 235 -218 q 269 -219 296 -215 l 295 -216 q 440 -204 481 -114 q 496 -83 506 56 q 514 156 575 178 q 599 188 625 188 q 636 188 660 186 q 684 183 699 183 q 720 183 743 199 q 754 231 754 237 q 754 291 699 302 l 700 302 l 688 304 l 671 329 l 636 344 l 638 344 l 600 351 l 603 351 q 560 358 521 370 q 503 400 503 473 l 503 500 q 503 563 491 591 q 474 635 421 645 q 403 696 263 696 q 243 696 214 695 q 186 694 180 694 q 183 694 138 723 q 92 752 61 752 q 51 752 28 742 q 6 732 -1 724 q -6 706 -6 706 z"},"Z":{"x_min":0,"x_max":936,"ha":936,"o":"m 923 8 q 923 3 911 -21 q 888 -33 866 -35 l 846 -25 q 814 -27 773 -27 l 659 -27 q 597 -28 472 -42 q 348 -56 285 -56 q 257 -56 203 -46 q 149 -35 125 -35 q 95 -35 94 -35 q 82 -32 66 -15 l 61 8 q 47 8 32 7 q 20 9 3 28 l -1 53 q -6 80 176 247 q 290 349 404 451 l 403 451 q 436 484 506 547 l 424 539 q 376 534 287 534 q 193 535 150 531 l 113 552 l 110 549 l 104 551 q 83 578 50 594 l 41 593 q 15 611 10 637 q 16 652 16 665 q 16 672 14 680 q 12 687 12 689 q 12 698 53 709 l 86 710 l 68 709 q 72 709 78 706 q 85 702 88 702 q 179 702 360 718 q 541 735 631 735 q 718 735 780 715 q 791 717 800 717 q 832 717 845 673 q 852 675 859 675 q 882 675 902 654 l 908 626 q 890 578 836 529 q 789 490 741 450 l 741 451 q 683 402 569 298 l 570 298 q 486 212 388 128 q 424 133 499 140 l 496 140 q 548 146 639 145 q 741 143 783 146 q 817 128 838 103 l 845 104 q 873 90 896 65 q 923 35 923 8 z m 828 39 q 827 61 811 92 q 795 124 775 124 q 694 124 534 112 q 373 99 293 99 q 247 99 209 108 q 328 203 492 353 q 631 480 769 608 l 771 604 q 786 614 800 634 q 814 655 814 671 l 812 686 l 799 697 q 792 696 783 692 q 716 714 633 714 q 578 714 489 704 q 379 691 345 689 q 256 689 79 680 q 72 686 64 688 l 53 679 q 52 656 43 636 q 52 617 64 609 l 61 614 q 81 608 98 597 q 279 616 569 616 q 596 616 623 609 q 355 386 74 120 l 73 121 q 57 111 44 92 q 29 70 30 54 l 31 39 l 44 27 q 51 27 60 31 q 132 8 226 8 q 281 8 373 19 q 482 33 520 35 q 563 37 624 37 l 693 37 q 751 37 795 40 l 814 30 z"},"x":{"x_min":0,"x_max":814,"ha":814,"o":"m 688 82 q 701 71 705 56 q 706 35 684 23 q 666 12 644 12 q 633 12 510 101 q 396 184 368 208 q 330 165 232 87 q 121 -3 89 -3 q 69 -3 51 14 q 33 32 31 53 q 39 67 49 74 l 50 73 q 132 150 290 264 q 240 293 161 359 q 82 425 49 467 l 49 467 q 31 482 31 494 q 31 515 52 527 q 69 538 91 538 q 99 538 225 447 q 343 362 370 340 q 423 396 503 460 q 601 539 649 552 q 669 549 688 532 q 708 515 706 496 q 702 482 688 475 l 686 476 q 586 384 448 283 q 486 261 574 187 q 662 113 688 81 z m 645 574 q 650 574 629 569 l 631 570 q 631 566 624 566 q 613 565 611 564 q 616 565 615 565 l 609 563 l 585 551 q 568 543 553 529 l 555 530 l 474 467 q 405 412 369 377 q 297 429 225 481 q 114 559 86 559 q 50 559 24 538 l 25 540 q 0 521 0 492 q 0 464 108 371 q 198 292 246 263 q 228 249 129 170 l 130 172 q 95 145 61 119 q 21 87 0 57 q 4 -5 74 -22 q 105 -67 151 -67 q 190 -67 294 11 q 374 72 433 128 l 470 102 l 469 102 q 664 -52 713 -52 q 748 -52 774 -31 l 774 -32 q 799 -15 799 15 q 799 23 775 48 l 778 48 q 758 74 701 122 l 703 121 q 654 163 553 241 q 559 246 666 333 l 665 331 q 670 331 734 386 q 797 442 800 449 l 800 457 q 800 481 775 503 q 753 522 728 528 q 692 574 645 574 z"},")":{"x_min":0,"x_max":514,"ha":514,"o":"m 29 727 q 58 728 112 713 q 173 696 181 675 q 293 661 354 554 q 406 464 406 341 q 406 187 395 128 q 381 58 333 2 q 305 -32 181 -144 q 177 -171 145 -187 q 117 -200 83 -200 q 71 -200 61 -198 q 52 -202 53 -202 q 28 -161 28 -155 q 28 -151 31 -145 q 147 -109 222 30 q 290 155 290 287 q 290 426 221 520 q 185 568 92 636 q 23 687 23 722 l 23 721 z m 259 287 q 259 157 191 36 q 116 -98 0 -132 q 0 -136 -2 -144 q -4 -153 -4 -157 q -4 -166 7 -183 q 18 -200 17 -210 q 28 -217 53 -233 l 68 -223 q 80 -242 79 -252 q 91 -260 115 -275 l 133 -263 l 160 -265 q 207 -268 316 -167 q 408 -81 449 -19 q 500 59 500 175 q 500 202 499 211 l 499 210 q 495 227 497 255 q 500 298 500 302 q 500 441 422 551 q 340 667 206 693 q 189 717 112 734 l 88 740 l 84 741 l 85 741 q 62 750 40 750 l 19 747 q 8 739 -8 716 q -8 680 61 629 q 155 560 190 514 q 259 422 259 287 z"},"&":{"x_min":0,"x_max":1088,"ha":1088,"o":"m 301 346 q 262 343 227 321 q 186 295 186 259 q 186 233 193 215 q 183 173 183 168 q 183 130 227 103 q 265 80 306 80 q 369 80 416 85 q 546 98 581 178 q 515 221 301 346 z m 463 546 l 466 574 q 466 597 436 612 q 411 624 387 624 q 378 624 362 622 q 346 620 340 620 q 333 619 318 620 q 303 622 297 622 q 271 622 247 608 q 219 591 219 567 q 219 559 221 544 q 223 528 223 520 q 223 488 270 457 q 314 428 349 428 q 389 428 428 455 q 466 482 466 521 q 466 534 463 546 z m 776 447 l 797 439 l 803 423 l 796 408 l 778 398 q 791 367 791 330 q 791 256 716 214 q 812 150 857 118 q 966 40 979 19 l 971 9 l 956 6 q 883 6 794 50 q 715 89 655 145 q 596 55 523 31 q 478 16 351 16 q 334 16 295 9 q 256 2 236 2 q 160 2 112 30 q 52 65 52 135 q 52 167 70 211 q 56 240 56 263 q 56 346 228 385 q 183 404 146 430 q 93 467 93 498 q 93 520 106 536 q 87 575 87 608 q 87 645 135 668 q 175 687 216 687 q 291 687 353 671 q 396 691 468 691 q 604 691 604 566 q 604 499 546 452 q 509 421 428 388 q 499 348 638 264 q 665 297 665 352 q 665 388 650 439 q 690 450 734 450 q 754 450 778 446 z m 788 467 q 753 473 690 469 q 699 497 699 533 q 699 606 619 661 q 547 712 470 712 q 449 712 408 703 q 366 694 348 694 q 331 694 299 699 q 261 705 251 705 l 259 705 q 216 709 216 709 q 92 709 56 607 q 54 601 62 572 q 69 547 73 538 q 61 520 61 494 q 61 468 101 434 q 130 408 163 390 q 24 342 24 259 q 24 235 36 210 q 21 165 21 132 q 21 46 124 -12 q 212 -62 306 -62 q 335 -62 392 -58 q 449 -55 479 -55 q 622 -55 724 63 q 757 39 790 16 q 829 -11 861 -21 l 918 -40 q 939 -47 984 -54 l 989 -55 l 998 -57 l 1018 -58 q 1017 -58 1053 -51 l 1074 -24 q 1069 -6 1055 4 l 1056 3 q 1020 42 945 93 q 884 132 823 172 q 884 221 884 293 q 884 320 875 346 q 882 351 890 363 q 897 375 896 382 q 878 407 843 416 l 850 424 l 834 427 q 814 451 780 459 z m 415 246 q 483 209 544 171 q 523 140 488 125 q 476 121 418 106 q 417 106 405 108 q 399 109 381 109 q 369 109 344 106 q 319 102 306 102 q 295 102 284 105 q 278 116 278 127 q 278 136 288 173 q 280 192 280 215 q 280 241 305 260 q 327 276 355 280 q 378 263 418 245 z m 435 517 q 435 491 407 470 q 379 450 351 450 q 346 450 321 458 q 317 465 317 483 l 318 498 q 318 502 316 510 q 313 519 313 524 q 313 540 330 550 q 344 558 361 558 q 368 558 381 557 q 394 556 400 556 q 405 556 416 558 q 427 559 433 559 q 433 552 434 538 q 435 524 435 517 z m 625 301 l 603 314 l 603 313 q 583 323 546 343 q 598 369 630 394 q 634 370 634 356 q 634 322 625 301 z m 348 286 l 344 287 q 343 289 342 290 q 343 289 348 286 z m 419 558 l 416 558 l 418 558 q 418 558 418 558 z"},"_":{"x_min":0,"x_max":1018,"ha":1018,"o":"m 909 -70 l 909 -77 q 909 -105 904 -115 q 897 -121 876 -121 l 75 -121 l 75 -120 q 56 -123 50 -110 q 57 -103 58 -93 q 57 -91 53 -83 q 49 -75 50 -70 q 58 -65 79 -65 l 886 -65 q 902 -65 909 -70 z m 936 -86 l 941 -73 l 934 -55 q 915 -43 886 -43 l 698 -43 q -152 -43 340 -42 q 48 -43 26 -54 l 19 -72 q 26 -97 26 -95 l 20 -104 l 19 -120 q 18 -123 44 -138 l 44 -142 l 86 -142 q 81 -144 81 -162 q 81 -166 106 -180 l 106 -184 q 193 -184 376 -179 q 560 -174 652 -174 q 799 -174 911 -184 l 909 -184 q 916 -184 951 -184 q 973 -184 991 -171 q 996 -162 999 -142 q 1002 -123 1004 -116 l 996 -98 q 976 -85 936 -86 z"},"v":{"x_min":0,"x_max":845,"ha":845,"o":"m 31 508 q 31 508 25 519 l 30 528 l 41 531 q 108 531 165 492 q 168 493 199 461 l 176 476 q 228 390 280 303 q 340 203 389 134 q 387 124 391 115 q 411 140 505 332 q 591 508 600 508 l 604 511 q 604 511 594 513 q 622 538 681 538 q 730 538 738 520 q 709 490 575 250 q 453 31 420 20 q 392 11 347 11 q 304 11 175 232 q 69 415 31 508 z m 333 -9 q 349 -35 366 -44 q 384 -54 416 -54 q 495 -54 524 -29 q 578 17 678 222 q 779 426 831 473 q 831 511 769 516 l 761 537 q 739 559 684 559 q 633 559 596 541 l 568 540 l 563 521 q 552 512 552 512 q 552 511 559 506 q 537 467 499 387 l 500 388 q 482 358 455 294 q 428 230 411 201 l 281 417 l 293 423 l 268 450 l 261 454 q 257 453 261 449 l 261 454 l 250 467 l 261 466 l 261 471 q 249 468 226 479 l 211 485 l 205 492 l 199 496 l 188 510 l 199 508 l 199 513 l 179 513 q 113 552 44 552 q 44 552 9 545 l -6 519 q -4 508 4 496 q 53 382 153 212 q 283 -8 333 -9 z m 199 499 l 200 499 l 200 501 q 200 507 199 508 z m 261 456 l 263 456 l 262 458 q 262 464 261 466 z"},"O":{"x_min":0,"x_max":1000,"ha":1000,"o":"m 751 369 q 751 380 756 403 q 760 426 760 438 q 760 524 710 568 q 659 613 572 613 q 552 613 514 606 q 475 600 456 600 q 333 600 269 565 q 184 519 184 408 q 184 397 188 376 q 193 354 193 343 q 193 332 188 307 q 184 282 184 270 q 184 186 235 142 q 286 99 371 99 q 392 99 432 106 q 472 113 492 113 q 760 113 760 301 q 760 312 756 335 q 751 358 751 369 z m 329 16 q 55 16 55 263 l 55 464 q 55 602 189 650 q 269 678 442 678 q 470 678 526 688 q 581 697 610 697 q 738 697 811 640 q 893 578 893 454 q 893 438 887 406 q 881 374 881 359 q 881 343 887 310 q 893 276 893 259 q 893 152 822 98 q 765 56 657 44 q 620 39 475 36 q 452 35 404 26 q 355 16 329 16 z m 986 214 l 986 416 q 986 527 914 597 l 915 597 q 792 718 614 718 q 587 718 541 710 q 491 701 470 700 q 372 694 274 689 q 158 675 99 630 q 24 573 24 456 q 24 411 33 354 q 31 345 30 334 q 24 308 24 258 q 24 110 150 26 q 260 -48 416 -48 q 450 -48 526 -31 q 535 -31 548 -27 q 546 -27 544 -26 q 539 -26 539 -28 l 545 -28 q 745 -28 832 1 q 986 54 986 214 z m 720 365 q 720 355 724 332 q 729 309 729 298 q 729 193 642 159 q 595 140 466 135 q 452 135 420 128 q 387 120 370 120 q 335 120 306 128 q 278 166 278 238 q 278 249 283 270 q 288 292 288 302 q 288 302 284 318 l 284 317 q 278 349 278 365 q 278 440 319 484 l 318 484 q 355 521 428 529 q 488 533 549 536 q 554 537 591 544 q 616 549 634 549 q 666 549 699 539 q 729 499 729 435 q 729 423 724 400 q 720 377 720 365 z"},"(":{"x_min":0,"x_max":523,"ha":523,"o":"m 411 734 l 414 736 q 413 727 416 721 l 419 718 q 418 718 410 703 q 295 665 219 524 q 150 396 150 265 q 150 152 185 85 q 211 37 279 -19 q 376 -100 410 -136 q 411 -143 414 -156 l 410 -167 l 385 -169 q 374 -169 326 -156 q 279 -143 270 -138 l 258 -121 q 141 -109 83 4 q 36 96 36 225 q 36 389 48 437 q 70 528 163 614 q 207 651 258 700 q 294 756 348 756 q 391 756 411 734 z m 508 684 l 481 715 l 475 723 q 461 730 445 733 l 428 758 l 413 766 q 385 778 344 778 q 296 778 261 747 q 231 715 201 684 q 84 574 58 537 q 5 459 5 339 l 5 220 q 5 94 51 0 l 51 1 q 77 -57 154 -114 q 231 -170 295 -181 q 311 -206 378 -218 l 376 -218 l 387 -219 l 396 -222 q 440 -234 456 -234 q 476 -234 496 -224 q 508 -208 508 -193 q 508 -190 506 -183 q 504 -176 504 -172 q 481 -148 397 -82 q 328 -28 298 14 l 299 13 q 244 107 244 224 q 244 320 299 446 l 299 445 q 369 603 499 646 q 500 652 505 662 z m 508 683 z m 508 683 z"},"C":{"x_min":0,"x_max":953,"ha":953,"o":"m 804 80 q 756 25 631 25 q 608 25 564 32 q 519 39 498 39 q 472 39 416 26 q 359 13 330 13 q 53 13 53 274 l 52 433 q 52 553 129 607 q 185 646 303 658 q 399 668 495 677 q 503 679 570 696 q 614 708 647 708 q 694 708 736 690 q 783 670 806 635 q 808 638 821 638 l 841 622 l 841 598 q 841 575 821 543 l 824 539 q 824 533 813 530 q 797 526 795 525 l 793 530 l 781 524 q 760 569 708 595 q 660 620 608 620 q 583 620 534 609 q 486 598 461 598 q 342 598 270 554 q 183 501 183 390 l 182 272 q 182 191 239 143 q 293 98 375 98 q 406 98 468 104 q 529 111 561 111 q 743 111 779 194 q 793 186 794 190 q 802 184 811 178 q 823 169 820 166 q 841 130 841 96 q 841 81 834 76 q 820 70 804 80 z m 885 9 q 906 9 925 22 q 934 42 934 65 q 934 86 916 122 q 922 121 938 133 l 908 143 l 898 148 l 901 144 l 865 168 l 875 175 l 846 185 l 835 190 l 839 187 q 805 211 763 235 q 765 223 761 223 q 760 223 759 224 q 723 135 585 135 q 567 135 534 136 q 500 138 485 138 q 469 138 432 129 q 396 120 378 120 q 341 120 310 130 q 276 174 276 239 l 276 354 q 276 441 345 487 q 396 521 497 537 q 576 546 655 556 l 654 555 l 664 556 q 703 559 725 543 q 744 530 765 491 l 786 501 q 806 487 828 449 l 849 458 l 858 452 q 872 462 904 479 l 885 474 l 939 491 l 919 503 q 931 527 935 552 l 935 552 l 936 569 q 936 569 928 597 q 905 616 884 616 l 856 648 q 791 690 750 708 q 690 733 633 729 l 620 728 l 623 728 q 582 725 504 711 q 426 697 386 693 l 388 693 q 209 677 137 639 q 21 579 21 428 q 21 411 20 372 q 19 334 19 313 q 19 138 95 69 l 94 70 q 149 12 231 -20 q 309 -50 393 -50 q 431 -50 456 -47 l 455 -47 q 467 -45 509 -34 q 544 -25 561 -25 q 583 -25 629 -32 q 675 -38 699 -38 q 814 -38 876 10 z"},"W":{"x_min":0,"x_max":1344,"ha":1344,"o":"m 883 162 q 922 222 962 336 q 1016 490 1028 518 q 1055 579 1084 665 q 1086 671 1086 671 l 1079 677 q 1128 707 1194 707 l 1224 705 l 1236 692 l 1218 675 l 1219 658 q 1219 651 1102 359 q 986 67 975 51 l 978 44 l 973 33 q 961 25 924 25 q 858 25 819 56 q 822 64 723 293 q 622 529 622 564 l 620 577 q 568 481 516 311 q 478 171 439 31 l 439 38 q 440 43 440 43 l 429 34 l 440 31 q 400 -3 343 -3 q 298 -3 286 5 q 279 13 283 22 q 256 58 148 346 q 41 635 41 671 q 41 676 34 682 q 26 688 25 692 l 38 703 q 122 700 179 655 l 171 650 l 171 651 l 175 644 q 192 594 230 496 q 248 455 298 317 q 339 205 374 141 q 408 255 473 430 q 560 667 588 679 q 615 691 656 691 q 680 691 696 678 q 820 375 883 162 z m 820 56 q 823 56 830 58 l 830 59 q 827 58 820 56 z m 640 712 q 578 712 543 680 q 471 534 390 284 l 380 311 l 380 310 q 341 406 270 602 l 284 611 q 251 636 218 651 l 221 654 q 186 682 139 702 q 86 724 46 724 q 46 724 11 717 l -8 689 q 2 666 119 333 q 210 73 250 20 l 249 14 l 269 -15 l 313 -25 l 311 -28 l 318 -48 q 337 -67 403 -67 q 471 -67 528 -19 q 529 -20 531 -18 q 533 -17 531 -15 l 555 9 l 539 9 q 572 110 636 314 l 635 313 l 658 382 l 656 382 l 658 388 l 759 123 q 760 121 775 84 q 788 51 788 49 q 812 22 848 14 l 850 7 q 892 -41 991 -38 q 1019 -37 1029 -36 q 1050 -32 1063 -21 q 1073 1 1071 8 q 1082 24 1198 320 q 1314 615 1313 624 l 1330 647 l 1309 675 l 1270 687 l 1265 686 l 1268 689 l 1247 718 l 1208 729 q 1200 732 1189 732 q 1157 732 1106 712 q 1062 696 1034 677 l 1053 664 q 1013 569 941 378 l 941 379 l 918 315 q 888 404 858 492 q 819 596 775 655 l 734 669 l 706 702 q 652 712 640 712 z m 1053 666 l 1054 669 q 1054 668 1053 666 z"},"A":{"x_min":0,"x_max":1023,"ha":1023,"o":"m 314 280 q 337 277 360 277 q 405 277 490 286 q 576 296 616 306 q 589 367 544 455 q 487 567 465 591 q 399 473 314 280 z m 915 18 l 898 6 q 798 15 758 54 l 761 57 q 749 89 714 146 q 680 204 658 229 q 494 194 346 194 q 302 194 270 198 q 246 171 213 117 q 180 63 166 30 l 171 27 q 136 -3 77 -3 q 65 -3 37 3 l 25 18 q 67 68 142 226 q 206 361 270 497 q 344 642 392 678 q 422 701 523 701 q 523 701 546 695 q 597 641 743 367 q 880 110 915 18 z m 509 722 l 459 719 l 426 714 q 386 707 367 691 q 318 651 214 439 l 215 440 q 160 341 104 241 q 37 119 4 37 l 4 37 l -6 20 l -6 17 l 14 -12 l 56 -23 q 54 -47 88 -59 q 112 -67 141 -67 q 215 -67 298 6 l 269 6 l 300 59 l 299 58 q 309 58 309 72 l 308 71 l 350 132 l 398 130 q 453 128 535 138 q 604 147 673 156 l 686 136 l 685 137 l 699 113 l 699 114 l 725 63 l 718 58 q 765 13 827 -20 q 900 -59 955 -59 q 955 -59 992 -51 l 1009 -25 l 1009 -19 q 1009 11 836 323 q 665 632 631 668 l 598 678 q 575 706 560 715 q 542 724 509 722 z m 578 320 q 537 317 458 306 l 461 307 l 436 303 q 438 306 439 309 l 439 309 q 482 408 511 454 q 542 395 578 320 z m 245 7 l 246 7 q 248 7 249 6 l 248 6 q 246 6 245 7 z"},"f":{"x_min":0,"x_max":569,"ha":569,"o":"m 3 526 q 29 525 66 507 q 63 548 63 553 q 63 646 143 687 q 206 720 308 716 q 348 750 386 750 q 420 750 438 716 l 449 720 l 460 709 l 461 695 q 461 657 435 629 l 430 632 l 420 621 q 403 660 381 660 q 362 660 324 637 q 303 643 281 643 q 239 643 213 619 q 187 595 187 553 l 188 511 q 257 543 333 543 q 341 543 360 537 q 379 531 389 533 l 403 518 l 405 501 q 405 471 384 457 q 382 465 366 465 q 272 465 211 445 q 209 444 190 441 q 179 439 191 439 l 191 334 q 191 294 190 221 q 188 145 188 108 q 188 54 189 51 l 190 43 l 191 43 l 184 25 q 157 -3 96 -3 q 77 -3 63 10 q 52 36 52 103 q 52 350 65 431 l 5 446 l 0 440 q -25 461 -23 494 l -21 508 q -12 523 3 526 z m -54 488 q -54 449 29 386 q 29 341 25 250 q 21 159 21 113 q 21 44 27 25 q 40 -20 90 -23 q 92 -66 176 -66 l 183 -65 q 216 -63 244 -46 q 273 -28 281 2 l 284 1 l 283 3 q 283 5 284 12 q 286 18 285 22 l 283 22 l 283 121 l 285 382 l 288 383 l 286 382 q 348 401 419 401 l 420 401 l 431 378 q 499 417 499 456 q 499 501 434 518 q 410 565 335 565 q 318 565 300 563 l 326 578 l 324 577 l 344 579 q 358 580 395 570 l 400 574 l 405 553 l 436 595 l 439 596 q 448 583 468 511 l 508 565 l 515 565 q 530 582 543 608 q 558 639 555 655 l 551 677 q 530 699 470 734 q 406 771 383 771 q 339 771 293 737 l 279 738 q 233 741 165 719 q 92 696 65 664 q 45 639 39 584 q 36 547 3 547 q -30 547 -51 515 z"},"Q":{"x_min":0,"x_max":1079,"ha":1079,"o":"m 754 370 q 764 395 764 443 q 764 523 713 566 q 666 606 583 606 q 557 606 506 598 q 455 589 428 589 q 324 589 261 552 q 182 507 182 410 q 182 364 193 337 q 186 317 186 274 q 186 188 238 138 q 289 87 375 87 q 396 87 426 93 q 464 101 475 102 q 602 117 637 129 q 726 159 750 238 q 762 277 762 315 q 762 346 754 370 z m 954 -141 l 930 -127 l 931 -141 l 923 -153 l 908 -161 q 858 -161 776 -111 q 736 -127 687 -127 q 623 -127 580 -86 q 539 -48 526 17 l 504 2 q 483 2 471 18 q 408 4 350 4 q 178 4 116 99 q 66 173 66 348 q 66 362 60 392 q 53 422 53 437 q 53 552 111 606 q 159 650 256 660 q 292 664 439 664 q 473 664 541 678 q 609 692 644 692 q 761 692 829 633 q 901 571 901 457 q 901 440 894 408 q 886 375 886 360 q 886 345 893 312 q 900 280 900 264 q 900 179 814 120 q 741 70 649 60 q 658 24 678 -6 q 705 -45 736 -45 q 760 -45 789 -31 q 810 -41 832 -52 q 861 -65 876 -65 l 901 -63 l 909 -48 l 903 -22 q 972 -83 970 -122 l 969 -136 z m 1019 -205 l 1054 -194 l 1065 -170 q 1056 -108 981 -43 l 965 -48 q 945 -23 919 -1 l 869 -17 l 875 -42 q 861 -39 789 -6 l 755 -20 l 748 1 q 840 17 911 72 q 994 136 994 221 l 994 416 q 994 527 926 593 l 928 592 q 875 648 798 680 q 721 713 644 713 q 614 713 586 709 l 588 710 q 588 705 580 705 q 566 705 566 705 q 462 685 351 685 q 186 685 115 642 q 21 587 21 436 q 21 288 29 236 q 48 122 115 61 l 114 62 q 237 -58 426 -58 q 445 -58 464 -57 l 463 -57 l 516 -50 q 558 -113 624 -152 q 690 -190 763 -190 q 799 -190 834 -179 q 891 -212 940 -224 l 936 -222 q 948 -226 963 -226 q 995 -226 1014 -204 z m 723 365 q 723 356 726 336 q 730 317 730 307 q 730 221 683 181 q 649 151 573 139 q 509 128 445 117 l 449 119 q 408 108 375 108 q 341 108 316 116 q 278 162 278 240 q 278 271 286 295 q 276 322 276 369 q 276 470 366 504 q 417 523 541 525 q 566 532 614 541 l 614 540 q 632 542 646 542 q 675 542 706 534 q 733 499 733 432 q 733 420 728 398 q 723 376 723 365 z m 178 19 l 176 20 l 176 19 z"},"w":{"x_min":0,"x_max":1128,"ha":1128,"o":"m 750 150 l 769 138 q 800 166 831 305 q 875 495 877 500 q 879 504 881 508 q 882 510 874 514 q 918 538 971 538 q 1020 538 1020 523 q 1020 519 1009 513 q 1010 498 924 280 q 839 61 824 41 l 828 35 l 812 22 l 785 20 q 741 18 699 44 l 710 48 l 710 48 l 699 45 l 699 46 q 686 116 644 192 q 636 206 571 305 q 519 383 514 408 q 484 368 427 230 q 389 133 350 37 l 366 48 l 346 27 q 348 26 345 25 q 343 24 341 25 q 302 -4 258 -2 l 231 0 l 214 12 l 218 19 q 197 44 116 264 q 34 484 36 510 l 25 523 l 39 533 q 118 529 171 496 l 163 491 q 163 466 224 314 q 282 171 300 140 q 315 176 394 329 q 462 460 474 508 q 493 525 526 524 l 561 522 q 619 469 678 351 q 733 241 751 153 z m 582 539 q 540 546 540 546 q 459 546 401 441 q 361 352 321 263 q 282 364 263 444 q 268 446 274 448 q 280 451 280 455 l 269 461 l 231 480 l 206 490 l 218 497 q 189 513 127 538 q 81 552 66 552 l 61 552 q 66 548 66 552 l 43 554 q 43 554 8 547 l -6 518 q 26 478 84 278 q 144 72 183 17 l 183 10 l 206 -16 l 244 -23 q 246 -24 245 -32 l 271 -59 q 311 -65 320 -65 q 380 -65 419 -39 l 440 -39 l 440 -20 l 443 -22 l 463 3 l 451 9 q 480 76 535 209 l 535 207 l 563 274 q 641 151 663 65 l 652 49 l 668 39 l 668 24 l 690 25 l 695 23 l 694 23 l 730 -3 l 730 -19 l 753 -17 q 817 -51 856 -43 q 906 -33 934 15 q 949 41 971 114 l 971 113 q 978 135 1048 311 q 1114 477 1114 481 q 1114 481 1109 499 q 1100 510 1076 512 q 1051 514 1051 524 q 1051 524 1046 541 q 1033 558 970 558 q 902 558 826 516 l 845 503 q 826 430 791 284 l 793 285 l 788 269 l 750 352 q 718 419 653 493 q 630 496 614 510 q 598 524 582 539 z m 786 -12 l 786 -13 l 785 -12 z"},"-":{"x_min":0,"x_max":643,"ha":643,"o":"m 543 416 q 540 373 513 358 q 507 355 363 348 q 227 342 192 342 q 39 342 42 404 l 43 416 l 50 425 q 79 431 118 431 q 148 431 206 426 q 265 422 291 422 q 324 422 388 428 q 451 435 484 435 q 530 435 543 416 z m 590 409 q 576 408 571 418 q 566 428 562 438 q 542 450 523 452 l 528 451 l 520 452 l 514 453 q 489 456 480 456 q 53 456 21 437 l 11 410 l 16 387 l 15 389 q 25 360 38 348 q 52 337 84 329 q 121 278 245 278 q 296 278 430 284 q 582 291 592 297 q 620 315 632 344 l 632 343 l 638 366 l 626 395 q 605 408 585 409 z m 158 287 q 159 286 160 286 l 154 287 z"},"E":{"x_min":0,"x_max":813,"ha":813,"o":"m 267 95 q 320 95 432 105 q 540 114 599 113 q 651 113 664 120 q 701 83 703 30 l 688 21 q 684 22 673 31 q 596 30 442 24 q 417 22 314 9 q 236 -1 185 -1 q 94 -1 55 25 q 41 92 41 287 q 41 343 42 438 q 43 532 43 560 q 43 624 54 672 q 68 679 107 679 q 128 679 166 677 q 203 675 211 675 q 266 675 374 690 q 483 704 538 704 q 614 704 673 682 q 677 684 688 688 l 702 677 q 701 662 705 634 q 683 603 656 603 q 640 603 604 610 q 568 617 549 617 q 477 617 371 600 q 282 585 193 570 l 189 574 q 194 574 179 570 l 180 571 q 176 556 176 537 q 176 445 191 411 q 247 412 370 428 q 485 442 548 442 q 609 442 631 437 q 681 427 681 390 q 681 364 669 354 q 658 350 637 350 q 621 350 590 353 q 559 356 548 356 q 493 356 371 340 q 255 324 193 326 q 177 280 177 136 q 177 120 181 102 l 180 102 l 190 99 q 207 95 267 95 z m 538 463 q 485 463 405 453 q 292 439 273 437 q 273 449 272 470 q 270 492 270 501 l 271 507 q 329 514 444 535 l 443 535 l 496 545 q 600 553 619 553 q 670 553 718 537 q 751 546 763 552 q 782 562 799 586 q 798 606 791 646 q 775 663 763 664 q 773 663 734 663 l 734 664 l 729 689 q 709 709 687 709 q 678 709 671 705 q 612 724 540 724 q 483 724 369 710 q 255 696 198 696 q 172 696 148 698 l 150 698 q 123 701 83 701 q 49 701 24 681 q 11 630 11 564 q 11 536 10 438 q 8 340 8 280 q 8 85 25 14 q 53 -3 84 -11 l 88 -28 q 145 -65 259 -65 q 328 -65 482 -52 q 690 -36 715 -34 l 724 -42 l 753 -42 q 768 -43 788 -29 q 798 -10 798 1 l 795 8 l 796 3 q 788 58 730 110 l 713 99 q 697 123 668 153 l 641 135 q 656 136 504 136 q 454 136 424 130 l 426 131 q 284 116 271 116 l 271 122 q 271 192 280 262 q 307 262 368 267 l 366 267 l 376 268 l 494 284 q 540 290 606 288 q 724 285 718 285 q 741 285 758 301 q 776 317 776 340 q 776 346 775 352 q 768 386 757 396 q 746 406 711 411 q 693 447 635 458 q 607 463 538 463 z m 643 688 q 643 702 663 703 q 659 702 653 700 q 643 696 643 688 z"},"s":{"x_min":0,"x_max":708,"ha":708,"o":"m 404 22 q 359 22 288 7 q 218 -8 183 -8 q 93 -8 60 46 l 50 45 q 47 45 40 52 q 33 59 33 62 q 33 113 50 133 l 48 135 q 48 139 56 141 q 65 143 66 144 l 68 143 l 78 146 q 95 113 138 93 q 177 76 218 76 q 244 76 296 84 q 348 93 388 93 q 434 93 467 126 q 470 150 470 150 q 463 197 425 214 q 396 227 336 227 q 324 227 298 226 q 271 226 258 226 q 166 226 123 256 q 62 298 62 411 q 62 485 171 507 q 218 516 341 516 q 357 516 398 528 q 438 540 459 540 q 542 540 573 490 l 581 493 q 596 488 596 477 q 596 433 581 409 l 583 405 l 581 405 q 580 405 574 400 q 568 396 566 396 q 563 396 554 394 q 537 424 497 441 q 461 457 423 457 q 377 457 331 439 q 316 443 302 443 q 188 443 188 385 q 188 377 196 343 q 217 322 250 316 q 268 313 312 313 q 438 313 490 298 q 593 269 593 175 q 593 164 597 144 q 601 123 601 112 q 601 60 525 37 q 474 22 404 22 z m 283 334 q 280 340 280 349 q 280 378 342 378 q 375 378 395 372 q 452 393 485 393 q 498 393 519 387 q 532 372 543 355 l 558 365 q 590 340 605 313 l 625 326 l 629 323 l 643 332 l 659 350 l 675 361 q 690 372 690 430 q 690 464 593 514 q 501 561 459 561 q 433 561 395 551 q 351 540 334 538 q 269 535 205 532 q 124 526 84 502 q 31 469 31 394 q 31 248 171 195 q 253 165 436 160 l 440 141 l 426 122 q 406 118 386 117 q 373 116 350 118 q 323 119 311 119 q 299 119 268 108 q 236 98 220 98 q 197 98 178 105 q 167 117 160 131 l 154 129 l 130 133 q 123 139 95 146 q 76 151 77 168 l 16 148 q 17 143 9 111 q 1 79 1 69 q 1 29 103 -23 q 199 -73 248 -71 l 269 -71 q 286 -69 379 -53 q 442 -42 491 -42 q 564 -42 621 -16 q 694 17 694 81 q 694 237 556 296 q 465 334 283 334 z m 50 160 q 53 161 59 163 q 56 162 50 160 z"},">":{"x_min":0,"x_max":913,"ha":913,"o":"m 798 338 l 805 315 l 798 296 q 708 268 338 130 q 281 109 192 89 q 59 59 44 54 l 29 67 l 29 84 q 29 101 44 118 q 58 136 75 143 l 78 136 q 73 136 90 142 l 76 142 q 179 142 285 179 q 336 197 466 258 q 578 311 653 331 q 570 378 374 412 q 145 453 76 477 l 90 475 l 84 479 q 76 483 75 476 q 28 506 28 562 l 44 572 q 121 526 285 492 q 425 464 566 436 q 722 398 798 338 z m 398 495 l 399 495 q 319 510 238 526 q 139 548 85 576 q 52 593 54 593 q 30 593 7 582 l -4 557 q -5 554 -5 551 q -5 534 18 504 q 35 481 51 467 l 50 462 l 64 457 l 106 428 l 106 431 q 113 431 113 420 l 126 415 l 169 386 l 169 400 q 267 370 323 360 l 321 360 q 363 350 436 339 q 520 327 551 320 l 548 318 l 549 318 q 442 268 334 219 q 209 168 106 163 l 106 179 q -4 136 -4 76 q -4 76 5 51 q 25 34 59 34 l 59 33 l 68 8 q 89 -9 101 -9 q 184 -9 303 27 q 375 49 515 105 q 655 161 714 178 q 803 205 818 211 q 900 242 900 269 q 900 338 681 415 q 546 463 398 495 z m 76 143 l 74 147 z"},"l":{"x_min":0,"x_max":259,"ha":259,"o":"m 151 677 l 151 104 q 151 49 149 35 l 140 29 l 116 31 q 109 31 88 18 q 67 4 48 6 l 43 6 q 25 21 25 66 l 25 668 q 25 693 28 706 l 38 716 l 50 714 q 65 714 84 726 q 103 739 112 739 q 127 739 139 736 q 151 725 151 677 z m 165 748 l 169 746 l 170 751 q 133 761 116 761 q 104 761 76 748 q 49 736 49 737 l 44 742 q 9 728 -4 706 q -8 700 -8 169 q -8 69 -8 72 q -3 11 23 -13 q 44 -17 59 -16 q 65 -37 85 -55 q 104 -59 118 -59 q 146 -59 183 -34 l 199 -35 q 209 -35 228 -29 l 243 -12 q 245 8 245 60 l 245 643 q 245 685 228 705 l 231 704 l 233 708 q 206 715 180 718 q 176 733 165 748 z"},"8":{"x_min":0,"x_max":809,"ha":809,"o":"m 561 236 q 561 306 456 327 q 409 337 298 337 q 262 337 221 304 q 177 270 177 236 q 177 229 180 217 q 183 205 183 200 q 183 195 179 182 q 175 169 175 162 q 175 126 220 101 q 258 80 298 80 q 306 80 340 86 q 374 91 376 94 q 436 93 490 109 q 566 132 566 178 q 566 188 564 207 q 561 226 561 236 z m 544 550 q 544 555 546 564 q 549 573 549 578 q 549 606 512 624 q 483 637 451 637 q 435 637 412 632 q 379 625 374 624 q 321 617 269 610 q 200 593 200 547 q 200 541 202 528 q 203 516 203 510 q 203 419 443 419 q 471 419 510 453 q 549 487 549 515 q 549 521 546 532 q 544 544 544 550 z m 534 390 q 597 375 643 342 q 702 300 702 245 q 702 230 694 217 q 702 188 702 156 q 702 64 574 40 q 530 31 375 31 q 355 31 306 17 q 258 3 233 3 q 153 3 103 39 q 46 80 46 156 q 46 181 55 211 q 44 231 44 249 q 44 324 204 364 q 201 367 199 371 q 127 398 104 422 q 75 453 75 518 q 75 523 70 552 q 64 580 65 583 q 95 687 274 687 q 292 687 326 686 q 360 685 374 685 q 393 685 440 698 q 488 712 513 712 q 586 712 630 681 q 680 646 680 577 q 680 558 673 535 q 681 519 681 505 q 681 439 535 394 z m 513 734 l 481 732 q 414 720 269 707 l 274 707 q 202 714 126 684 q 34 648 34 582 q 34 571 39 556 l 38 557 l 39 549 l 39 543 l 41 530 l 43 518 q 40 509 36 488 q 35 455 68 421 q 105 384 141 369 q 15 326 15 252 l 15 156 q 15 65 112 -1 q 200 -60 296 -60 q 330 -60 394 -46 q 457 -33 490 -33 q 528 -33 548 -31 l 545 -31 q 659 -25 708 -6 q 795 29 795 119 l 795 210 q 795 257 750 295 q 710 324 670 354 q 742 385 761 424 q 774 452 774 538 q 774 618 681 681 q 595 738 513 734 z m 530 212 q 527 218 525 222 q 527 213 533 195 l 533 195 l 534 189 q 535 182 535 179 q 535 116 363 116 q 358 112 346 109 l 348 110 q 319 102 298 102 q 284 102 271 105 q 269 113 269 120 q 269 142 273 148 q 274 148 276 153 l 276 163 q 276 168 274 178 q 271 188 271 194 q 271 220 305 246 q 339 273 366 273 l 401 273 q 513 273 522 262 q 530 252 530 236 q 530 212 530 212 z m 513 544 q 513 540 516 530 q 518 520 518 515 q 518 494 487 467 q 456 440 435 440 q 359 440 299 454 q 296 458 296 463 q 299 468 299 478 q 299 488 295 496 l 296 494 q 294 500 294 506 q 294 544 396 557 l 395 557 q 411 557 444 560 q 451 561 480 568 q 502 574 518 574 q 513 564 513 544 z m 296 468 q 297 468 298 470 l 296 463 z"},"\\":{"x_min":0,"x_max":710,"ha":710,"o":"m 593 -87 q 601 -101 601 -110 l 600 -120 q 589 -124 589 -124 q 547 -124 508 -98 q 466 -70 245 303 q 24 676 24 723 l 26 733 q 37 738 37 738 q 71 738 114 710 q 165 676 360 337 q 530 44 591 -87 z m 43 760 q 43 760 8 751 l -8 727 l -8 720 q -8 674 212 301 q 432 -72 475 -105 q 585 -189 645 -189 q 645 -189 680 -182 l 696 -157 q 696 -152 685 -125 l 683 -122 l 684 -122 q 603 47 471 266 q 355 454 239 642 l 239 641 q 222 670 149 715 q 76 760 43 760 z"},"e":{"x_min":0,"x_max":791,"ha":791,"o":"m 540 337 q 548 365 548 384 q 548 418 506 440 q 470 459 433 459 q 354 459 277 435 q 169 403 169 343 q 169 338 173 316 q 196 314 219 314 q 268 314 379 327 q 483 339 540 337 z m 655 261 q 636 261 598 264 q 560 268 541 268 q 482 268 356 256 q 236 245 171 246 q 167 219 167 200 q 167 153 216 120 q 261 91 310 91 q 327 91 359 98 q 391 106 405 106 q 416 106 440 104 q 463 101 474 101 q 519 101 563 113 q 623 130 633 161 l 634 161 l 644 154 l 645 155 l 668 140 l 665 138 q 679 115 683 66 q 675 51 654 57 q 615 18 521 18 q 502 18 464 24 q 426 30 408 30 q 386 30 339 20 q 292 10 268 10 q 165 10 108 59 q 46 111 46 212 q 46 221 50 239 q 55 257 55 265 q 55 276 50 298 q 46 320 46 332 q 46 421 102 463 q 145 497 231 507 q 305 512 379 517 q 393 518 436 525 q 472 531 495 531 q 670 531 670 367 q 670 327 656 264 q 655 265 653 265 q 652 265 651 265 q 651 264 655 261 z m 494 552 q 439 552 400 542 l 401 542 q 376 536 233 524 q 128 515 81 483 q 15 437 15 327 q 15 310 14 280 q 14 250 14 237 q 14 159 33 117 q 58 62 130 16 q 193 -24 225 -36 q 270 -54 334 -54 q 386 -54 466 -37 l 464 -37 l 470 -35 q 488 -35 526 -40 q 565 -45 585 -45 q 676 -45 728 -10 q 749 -10 768 3 q 777 29 778 29 l 777 40 l 775 48 l 775 47 q 772 69 763 90 l 776 99 q 733 124 711 139 l 714 141 q 680 161 645 185 l 640 182 l 606 182 q 587 125 493 125 q 476 125 446 127 q 416 129 405 129 q 391 129 359 120 q 327 112 311 112 q 297 112 274 117 q 260 138 260 158 q 260 177 263 182 l 264 182 q 316 182 392 189 q 456 195 519 201 q 567 204 642 201 q 743 197 764 197 l 750 220 q 764 283 764 327 q 764 423 676 490 q 594 552 494 552 z m 281 338 q 312 367 357 375 q 397 381 438 387 q 472 394 496 394 q 504 394 516 393 q 518 382 518 384 q 518 370 514 358 q 467 357 397 350 q 339 344 281 338 z"},"b":{"x_min":0,"x_max":778,"ha":778,"o":"m 378 443 q 366 445 353 445 q 250 445 191 375 l 181 373 l 184 373 q 173 326 173 161 q 173 136 178 111 l 183 114 q 215 80 260 80 q 280 80 304 89 q 325 96 346 104 q 393 113 442 122 q 491 131 513 155 q 542 186 542 255 q 542 261 539 272 q 536 283 536 289 q 536 300 540 323 q 544 346 544 357 q 544 397 512 426 q 481 454 441 454 q 404 454 378 443 z m 48 719 l 51 728 q 62 733 62 733 q 92 733 128 718 q 165 704 180 682 l 169 680 l 170 681 q 166 664 166 645 q 166 518 185 455 q 268 544 472 544 q 560 544 614 488 q 669 433 669 345 l 669 196 q 669 94 574 58 q 517 37 393 37 q 376 37 336 17 q 295 -3 250 -3 q 234 -3 210 12 q 186 27 176 42 l 169 29 l 174 28 q 169 21 164 14 q 159 8 154 9 q 129 -4 96 -4 q 86 -4 59 3 l 48 20 q 47 21 49 22 l 53 30 q 40 56 40 84 q 40 112 47 310 q 54 508 54 600 q 54 697 48 719 z m 9 97 q 9 40 18 17 q 33 -22 79 -25 q 93 -67 160 -67 q 175 -67 205 -61 q 235 -55 253 -56 l 253 -48 q 287 -68 328 -68 q 381 -68 448 -28 q 655 -30 715 36 l 715 35 q 764 83 764 159 q 764 292 761 315 q 751 405 705 456 l 706 456 q 661 505 593 535 q 525 565 458 565 q 384 565 338 553 l 340 553 q 300 547 264 533 q 260 566 260 610 l 263 622 l 251 635 l 268 650 l 248 667 l 239 673 l 205 693 l 192 712 l 176 716 q 147 737 99 750 l 100 749 q 81 754 68 754 q 67 754 31 746 l 16 721 q 16 717 18 708 q 21 700 21 697 q 21 597 15 397 q 9 197 9 97 z m 486 388 q 490 389 497 390 l 505 390 q 513 373 513 357 q 513 346 509 324 q 505 302 505 292 q 505 281 508 269 l 508 269 q 510 259 510 234 q 510 176 460 150 q 428 134 359 127 l 363 127 q 348 126 316 113 q 283 100 268 102 l 267 114 q 261 227 275 314 q 329 382 415 382 q 416 382 444 377 q 463 386 493 390 z m 19 31 l 18 26 l 18 36 q 18 35 18 33 q 19 32 19 31 z"},"%":{"x_min":0,"x_max":1389,"ha":1389,"o":"m 396 491 q 399 502 399 512 l 399 543 q 399 618 280 618 q 272 618 256 620 q 240 623 232 623 q 169 623 169 564 q 169 550 174 522 q 179 494 179 479 q 179 408 200 387 q 222 366 293 366 q 299 366 312 364 q 324 363 331 363 q 362 363 384 383 q 405 403 405 433 q 405 464 396 491 z m 348 299 l 332 298 q 289 295 259 295 q 155 295 114 336 q 68 383 68 509 q 68 523 61 552 q 54 582 54 598 q 54 693 173 693 q 197 693 244 690 q 291 686 315 686 q 387 686 448 659 q 528 623 524 559 q 523 551 520 526 q 518 505 518 494 q 518 483 521 460 q 524 438 524 427 q 524 363 465 329 q 419 304 348 299 z m 364 31 q 400 77 606 364 q 753 569 861 684 q 889 715 944 715 q 944 715 971 712 l 985 697 q 968 675 733 354 q 569 131 478 32 q 446 -1 400 -1 q 391 -1 363 2 l 349 17 q 351 34 364 31 z m 1146 217 q 1146 223 1148 235 q 1151 247 1151 253 q 1151 351 1063 351 l 998 351 q 968 351 946 331 q 924 311 924 281 q 924 272 928 252 q 933 233 933 224 q 933 219 930 208 q 928 198 928 193 q 928 133 965 112 q 992 97 1055 97 q 1062 97 1078 94 q 1093 92 1101 92 q 1127 92 1144 109 q 1161 126 1161 151 q 1161 162 1154 184 q 1146 207 1146 217 z m 991 31 q 929 31 874 62 q 809 99 809 156 q 809 167 812 189 q 815 211 815 221 q 815 232 810 256 q 804 279 804 290 q 804 345 857 383 q 905 416 962 416 q 976 416 1006 417 q 1037 418 1053 418 q 1176 418 1226 366 q 1270 321 1267 274 q 1264 214 1264 207 q 1264 194 1272 162 q 1281 131 1281 115 q 1281 23 1163 23 q 1134 23 1077 27 q 1020 31 991 31 z m 1224 -41 q 1375 -41 1375 74 q 1375 99 1368 146 q 1360 194 1360 219 q 1360 334 1244 392 q 1151 439 1013 439 q 954 439 905 430 q 915 444 998 540 q 1062 614 1079 650 l 1059 682 l 1016 694 l 994 725 q 950 736 944 736 q 874 736 829 689 l 830 692 q 739 588 618 416 q 618 416 618 516 q 618 595 537 642 q 477 677 366 695 q 288 703 209 712 l 211 711 l 171 715 q 109 720 69 693 q 23 662 23 598 q 23 551 34 473 q 47 384 63 361 q 106 297 198 261 q 281 228 377 228 q 440 228 491 243 l 343 50 l 339 51 q 325 51 318 17 l 338 -12 l 380 -23 l 380 -25 l 402 -55 l 445 -65 q 453 -67 462 -67 q 512 -67 580 -1 q 631 47 695 136 q 735 195 776 254 l 784 218 l 783 213 q 778 167 778 158 q 778 44 955 -8 q 1071 -41 1224 -41 z m 374 433 q 374 384 326 384 q 321 384 310 386 q 298 388 293 388 q 290 388 284 387 q 279 386 276 386 l 275 386 q 271 399 273 420 q 275 455 275 454 q 275 467 269 484 l 270 483 q 264 513 264 521 q 264 559 295 559 q 305 559 328 557 q 352 555 365 555 q 368 546 368 541 l 367 511 q 367 508 366 502 q 365 497 365 495 q 365 485 370 464 q 374 443 374 433 z m 1130 150 q 1130 114 1100 114 q 1090 114 1070 116 q 1050 117 1040 117 l 1025 117 q 1023 126 1023 144 q 1023 151 1024 164 q 1026 178 1026 184 q 1026 193 1022 211 q 1018 229 1018 238 q 1018 287 1063 287 q 1071 287 1088 286 q 1105 286 1114 286 l 1116 286 q 1119 277 1119 257 q 1119 247 1116 234 l 1116 235 q 1115 231 1115 217 q 1115 207 1122 184 q 1130 161 1130 150 z"},"m":{"x_min":0,"x_max":1250,"ha":1250,"o":"m 68 509 l 58 522 l 70 530 l 91 530 q 138 530 203 496 q 201 492 196 492 q 192 492 184 496 q 176 500 174 500 q 166 500 169 490 q 175 463 203 448 q 230 516 307 516 q 326 516 366 512 q 405 507 425 507 q 437 507 464 514 q 492 520 506 520 q 543 520 579 499 q 615 478 629 445 q 742 537 833 537 q 834 537 858 538 q 883 539 902 539 q 1118 539 1118 466 q 1118 408 1086 345 q 1112 326 1129 207 q 1142 118 1142 60 q 1142 60 1128 23 q 1128 23 1138 13 l 1124 4 q 1042 9 988 38 q 997 46 998 42 q 1008 61 1008 103 q 1008 151 997 212 q 982 294 958 306 q 993 364 991 390 l 989 415 q 970 444 908 449 q 902 450 809 450 q 756 450 658 383 q 661 382 661 346 q 661 323 661 300 q 668 111 666 65 l 665 38 q 643 10 578 10 q 553 10 538 18 q 527 43 527 109 q 527 146 531 213 q 535 280 535 296 q 535 366 511 397 q 491 423 444 428 q 430 429 336 429 q 263 429 231 395 l 221 368 l 216 370 q 183 312 183 67 q 183 49 193 25 l 196 26 l 203 20 q 150 -5 104 -1 l 70 2 l 58 13 l 68 23 q 61 44 61 262 q 60 483 68 509 z m 35 26 l 25 14 l 51 -14 q 65 -15 78 -17 q 91 -19 88 -28 l 113 -56 q 151 -65 160 -65 q 233 -65 314 -25 l 280 1 q 275 20 275 39 q 275 74 284 178 q 294 288 300 304 l 315 304 q 314 366 385 366 q 454 366 494 362 q 499 327 500 286 q 501 258 499 210 q 498 155 498 133 q 498 119 500 81 q 502 48 501 30 l 521 0 l 564 -10 q 563 -11 571 -33 q 592 -55 641 -54 l 666 -53 q 742 -45 760 -2 q 759 -1 760 23 q 762 73 757 159 q 753 258 753 296 l 756 321 q 756 321 756 332 q 756 332 766 340 l 765 340 q 836 386 874 386 q 882 386 916 385 q 941 384 959 385 q 951 354 919 297 q 953 282 959 241 l 959 242 q 963 242 962 235 q 961 222 961 222 l 966 192 q 978 110 978 84 q 978 84 973 59 l 940 37 q 979 15 1015 3 l 1003 -6 q 1107 -60 1181 -60 q 1181 -60 1214 -53 l 1233 -27 l 1224 -17 q 1236 8 1236 35 q 1236 85 1222 176 q 1204 284 1184 308 q 1204 341 1210 377 l 1210 377 l 1214 408 q 1214 470 1138 498 q 1105 545 994 556 q 965 558 831 558 q 743 558 638 484 q 636 485 577 522 q 545 541 503 541 q 490 541 456 542 q 421 543 400 543 q 268 543 218 513 q 136 552 79 552 q 79 552 43 547 l 25 519 l 35 506 l 33 508 l 34 504 q 31 491 31 264 q 32 37 35 26 z"},"#":{"x_min":0,"x_max":1009,"ha":1009,"o":"m 371 267 l 390 266 q 475 262 551 297 q 560 314 571 369 q 580 418 581 445 l 584 446 l 581 448 l 581 446 q 556 449 504 444 q 451 439 428 432 l 426 433 l 423 426 l 413 425 q 395 410 382 352 q 372 307 370 269 l 365 269 l 370 265 z m 700 516 q 725 522 750 522 q 870 522 897 497 l 901 479 l 889 453 l 856 439 q 831 454 728 454 q 699 454 670 448 l 671 442 q 671 404 616 292 q 648 289 705 289 q 773 288 784 294 q 803 288 812 277 q 817 270 825 246 l 821 232 q 798 217 714 217 q 637 217 594 226 q 592 188 574 132 q 555 76 535 47 l 538 48 l 521 26 q 502 17 481 17 q 468 17 453 22 l 440 46 q 456 67 481 125 q 506 183 513 212 l 509 219 q 456 199 393 199 q 367 199 348 204 q 347 204 294 80 q 289 67 280 40 l 278 33 l 279 30 q 248 -3 204 -3 q 204 -3 175 7 q 174 11 178 11 q 174 11 174 31 q 174 45 189 73 q 207 115 251 197 q 224 192 190 192 q 101 192 59 216 l 53 236 l 59 257 l 80 272 q 82 271 86 273 q 91 275 93 275 q 109 275 157 268 q 205 260 227 260 q 251 260 278 264 q 278 317 336 422 q 302 426 248 424 q 166 421 164 421 q 151 421 138 438 q 124 456 124 468 l 127 483 q 153 497 237 497 q 314 497 358 488 q 358 529 377 584 q 396 636 421 669 q 420 667 419 668 l 420 670 l 421 672 q 427 679 439 689 q 456 700 474 700 q 489 700 504 694 l 516 669 q 494 644 473 587 q 456 538 449 496 q 497 516 563 516 q 587 516 608 513 q 645 586 684 691 q 708 717 749 717 q 749 717 778 708 l 779 700 l 775 703 l 779 692 q 779 668 748 603 q 721 547 700 516 z m 809 719 q 770 739 751 739 q 727 739 697 728 q 667 718 656 700 q 647 679 650 688 q 624 613 585 536 l 566 537 q 582 578 584 582 q 594 605 610 621 l 611 632 q 611 650 589 665 q 569 677 549 679 q 528 722 479 722 l 458 719 l 460 720 q 428 716 402 691 q 377 666 366 633 l 366 634 l 354 609 l 349 592 l 350 593 q 334 554 328 513 q 262 518 185 518 q 130 518 103 498 q 92 469 93 467 q 104 428 125 414 l 124 414 l 143 405 q 172 393 188 371 l 186 371 q 186 367 234 353 l 249 363 l 273 363 q 254 324 248 282 l 219 281 q 193 281 118 287 l 116 288 l 113 294 l 106 303 l 85 297 l 74 295 l 75 294 l 56 292 q 55 290 36 268 q 20 250 20 239 q 20 236 21 233 l 34 203 q 51 193 85 178 q 93 159 127 144 q 155 132 181 130 l 164 88 q 144 56 144 14 l 144 -3 q 150 -7 181 -17 q 205 -25 205 -32 l 206 -45 q 239 -67 266 -67 q 302 -67 337 -45 q 369 -24 389 8 l 378 8 q 387 37 429 134 l 450 134 q 409 36 409 42 q 409 42 427 10 q 453 -4 471 -5 q 489 -30 498 -37 q 513 -48 539 -48 q 552 -48 571 -43 l 570 -43 q 599 -39 616 -18 q 634 4 650 26 l 644 26 q 644 27 648 50 q 651 65 659 65 l 663 75 q 675 108 685 158 q 729 154 823 154 q 880 154 909 177 q 919 201 919 204 q 919 249 848 275 q 827 303 776 320 q 758 308 753 309 l 739 309 q 744 313 753 347 q 762 375 764 388 l 803 390 q 851 392 915 374 q 943 376 968 393 q 994 410 995 436 q 986 466 974 476 q 963 485 930 493 l 918 514 q 872 538 833 541 l 864 611 l 873 606 l 872 614 l 873 635 l 871 677 q 865 680 824 690 q 809 693 809 719 z m 523 310 q 507 305 474 297 q 475 306 480 325 l 479 322 q 483 330 486 343 l 486 343 q 488 352 493 361 q 497 362 508 362 l 513 371 q 530 376 540 377 q 538 366 534 347 z m 458 719 z"},",":{"x_min":0,"x_max":410,"ha":410,"o":"m 245 154 q 284 154 299 140 q 265 88 231 36 q 193 -24 169 -71 q 148 -112 125 -144 q 112 -162 55 -162 q 30 -162 24 -146 q 35 -109 75 -2 q 120 117 131 130 q 152 154 245 154 z m 91 122 q 76 92 68 65 l 69 65 q 63 49 53 19 l 53 20 q -8 -151 -8 -148 q -8 -163 18 -174 q 39 -183 56 -183 l 55 -190 q 55 -207 83 -218 q 104 -225 125 -225 q 196 -225 216 -195 l 216 -195 q 253 -146 307 -49 q 369 60 396 100 q 369 129 328 133 l 334 143 q 301 176 250 176 q 204 176 159 167 q 110 157 93 125 l 90 121 z"},"n":{"x_min":0,"x_max":769,"ha":769,"o":"m 50 509 l 46 516 l 64 526 q 157 518 180 490 q 170 487 167 490 q 164 493 164 493 q 163 493 165 484 q 171 456 179 444 q 216 497 285 512 q 323 521 413 521 q 426 521 456 526 q 485 532 500 532 q 643 532 643 409 q 643 378 630 345 q 646 316 655 217 q 662 143 662 81 q 662 48 653 25 l 655 19 q 650 7 638 7 q 611 7 575 17 q 534 28 519 43 q 530 45 530 45 l 526 47 q 530 72 530 102 q 530 135 523 202 q 516 269 516 300 l 506 304 q 517 350 517 382 q 517 409 494 427 q 472 445 444 445 q 428 445 397 440 q 366 436 350 436 q 245 436 189 368 q 189 368 186 367 q 171 309 171 99 q 171 45 174 25 l 170 25 q 170 25 180 21 q 155 -3 99 -3 q 58 -3 46 17 l 50 23 q 43 58 43 104 q 43 116 41 237 q 40 334 41 392 q 43 474 50 509 z m 11 105 q 11 102 14 57 q 17 19 15 14 q 30 -20 78 -24 q 73 -67 166 -67 q 210 -67 258 -38 l 270 -38 l 269 -30 l 288 -14 l 266 -7 l 265 25 q 258 199 279 314 q 326 364 391 371 l 390 371 l 399 371 q 414 373 426 371 q 438 370 458 374 q 477 378 486 378 q 486 378 485 371 q 481 346 471 294 l 485 288 q 486 263 492 183 q 498 117 498 77 l 496 65 l 460 65 q 504 18 568 -17 q 641 -57 698 -57 q 749 -57 749 -14 l 748 -14 q 755 8 755 37 q 755 245 725 303 q 736 333 736 369 q 736 428 700 464 l 703 462 q 693 473 667 487 q 641 501 638 507 l 640 504 q 599 553 498 553 q 472 553 422 550 q 373 547 348 547 q 275 547 203 501 q 151 547 69 547 q 55 547 33 541 l 15 518 q 11 504 11 105 z m 746 -18 q 747 -18 748 -16 l 747 -20 q 747 -20 746 -20 z"},"h":{"x_min":0,"x_max":778,"ha":778,"o":"m 51 710 q 48 715 48 721 l 50 731 q 62 734 63 734 q 91 734 128 720 q 169 705 181 683 l 170 682 l 171 682 q 168 665 168 649 q 168 513 186 454 q 233 503 328 528 q 404 548 488 548 q 556 548 598 508 q 639 469 639 408 q 639 384 633 359 q 651 327 661 233 q 669 162 669 103 q 669 57 656 32 l 659 25 l 654 16 l 643 12 q 612 12 577 25 q 535 40 523 61 l 531 61 l 534 100 q 537 146 531 215 q 524 292 510 326 q 519 356 519 382 q 519 419 492 439 q 466 459 428 459 q 377 459 296 433 q 202 403 185 367 q 171 339 171 33 q 158 22 158 10 l 153 8 q 119 -3 101 -3 q 92 -3 61 3 l 48 22 l 51 31 q 43 77 43 128 l 43 604 q 43 663 51 710 z m 13 126 q 13 65 19 32 q 15 26 15 19 q 15 3 39 -10 q 60 -22 79 -23 q 92 -66 164 -66 q 196 -66 225 -54 l 224 -54 q 224 -52 230 -50 q 233 -50 235 -50 l 296 -11 l 265 -11 l 265 89 q 265 233 278 320 q 325 368 418 384 l 414 383 q 424 384 451 390 q 475 395 489 395 l 489 392 q 489 364 478 326 q 505 254 503 82 l 478 82 q 500 41 560 2 q 614 -33 666 -48 l 665 -47 q 682 -52 700 -52 q 700 -52 737 -44 l 753 -19 q 752 -10 758 13 q 764 36 764 47 q 764 107 756 183 q 745 281 728 316 q 734 345 734 382 q 734 448 641 511 q 555 569 486 569 q 364 569 266 531 q 263 543 263 607 l 263 624 l 283 631 l 268 651 l 270 660 l 259 660 q 234 683 205 695 l 208 703 l 196 703 q 142 755 65 755 q 65 755 30 749 q 16 724 13 682 q 13 672 13 611 z m 235 -50 q 231 -52 226 -54 q 226 -54 225 -54 q 230 -54 235 -50 z m 163 -12 q 164 -12 164 -12 q 165 -11 173 -8 q 168 -11 163 -12 z m 750 -12 l 751 -11 l 751 -14 q 751 -13 750 -12 z m 19 28 z"},"z":{"x_min":0,"x_max":759,"ha":759,"o":"m 614 105 q 649 75 651 28 l 636 19 q 624 25 624 25 q 555 25 420 16 q 284 6 216 6 q 119 6 58 20 q 52 17 40 14 l 29 23 l 28 37 q 28 67 63 88 l 65 85 q 79 101 170 179 q 215 218 312 313 q 401 400 455 445 q 431 449 407 449 q 380 449 334 444 q 277 437 260 436 q 199 437 78 435 l 78 436 l 71 430 q 51 447 45 464 q 41 474 38 506 l 51 515 q 62 511 63 511 q 135 511 280 522 q 424 534 496 534 q 563 534 614 519 l 628 522 l 640 513 l 641 501 q 641 489 629 473 q 617 457 605 450 l 604 451 q 507 359 410 267 q 294 158 210 90 q 231 87 250 87 q 285 87 356 95 q 428 103 465 102 q 599 101 608 101 l 608 100 z m 630 124 q 626 124 623 129 q 617 136 616 137 l 594 122 l 579 121 q 523 124 413 122 l 416 122 l 393 121 q 462 187 604 318 l 604 317 q 668 371 681 384 q 735 435 735 462 q 735 462 728 484 q 713 496 703 498 q 701 499 678 499 q 674 499 665 527 q 651 539 641 541 q 638 541 615 541 q 596 541 556 548 q 515 556 494 556 q 390 556 69 533 l 64 537 q 39 535 17 525 l 6 503 q 11 472 17 458 q 25 441 46 419 q 44 416 47 412 q 50 409 53 411 l 69 398 l 84 408 q 94 392 109 377 q 106 374 110 370 q 113 366 115 369 l 131 355 l 154 371 l 168 372 q 253 378 334 372 l 271 309 q 191 233 145 192 l 146 193 q -11 69 -4 35 l 1 11 q 19 -6 41 -6 q 50 -6 59 -3 q 59 -8 64 -31 q 75 -42 83 -45 q 91 -48 101 -47 q 117 -45 121 -45 q 145 -45 196 -52 q 246 -58 271 -58 q 349 -58 473 -51 q 642 -41 675 -40 l 688 -47 q 709 -44 733 -31 q 745 -13 745 -2 l 743 5 l 744 2 q 737 36 701 73 q 704 76 705 78 q 705 82 693 82 q 689 82 684 88 q 680 93 679 94 l 664 84 q 654 100 639 116 q 642 119 642 121 q 642 124 630 124 z m 95 95 q 94 97 94 101 l 94 103 q 95 101 95 97 z m 76 530 l 78 529 l 77 529 q 76 529 75 530 z"},"B":{"x_min":0,"x_max":873,"ha":873,"o":"m 204 321 l 198 321 q 181 282 181 140 q 181 118 189 98 q 188 97 188 96 q 188 94 192 92 q 196 91 195 90 q 216 87 238 87 q 323 87 359 110 q 445 110 517 125 q 627 149 627 201 q 627 283 611 311 q 587 354 509 354 q 458 354 390 333 q 382 339 373 339 q 350 339 304 335 q 259 331 236 331 q 220 331 204 326 z m 546 539 q 546 543 548 552 q 551 561 551 566 q 551 590 517 603 q 491 614 462 614 q 438 614 400 605 q 370 598 339 592 q 325 597 267 598 q 214 598 194 595 l 191 599 q 181 583 181 547 q 181 436 201 405 l 201 411 q 223 408 247 408 q 325 408 351 425 q 499 425 540 481 q 547 490 548 500 q 549 507 548 518 q 546 533 546 539 z m 573 415 q 642 410 697 379 q 765 340 765 277 q 765 258 755 235 q 765 207 765 167 q 765 42 497 42 q 477 42 445 43 q 414 43 404 43 q 350 -3 208 -3 q 112 -3 92 3 q 42 20 42 94 q 42 161 48 296 q 53 430 53 497 l 53 610 q 53 613 55 648 q 57 676 55 683 l 61 692 q 72 697 93 697 q 137 697 222 688 q 326 677 348 663 q 451 702 534 702 q 691 702 691 590 q 691 578 684 541 q 687 540 691 514 q 677 475 646 453 q 626 439 576 420 q 577 419 573 415 z m 536 723 q 459 723 350 688 q 320 701 221 711 q 141 718 88 718 q 72 718 45 712 l 24 683 l 25 677 q 11 505 11 88 q 11 78 18 60 q 25 42 25 33 q 25 28 24 24 q 43 0 51 -6 q 59 -11 86 -16 q 77 -62 259 -67 l 275 -67 l 298 -65 q 365 -61 392 -55 q 446 -45 480 -20 q 488 -20 518 -21 q 545 -21 563 -21 q 859 -21 859 131 q 859 164 850 191 q 859 212 859 235 q 859 275 835 304 q 820 322 780 348 q 740 374 725 390 l 723 391 q 785 429 785 471 l 783 497 l 780 496 l 779 503 q 779 508 781 516 q 783 524 784 528 q 787 561 775 592 q 757 642 696 665 q 653 723 536 723 z m 596 276 q 596 270 594 258 q 593 245 593 239 q 593 233 594 220 q 596 208 596 202 q 596 160 488 142 q 424 131 346 131 q 325 116 275 111 q 275 112 277 185 q 278 230 285 258 l 298 258 l 298 267 q 342 269 431 275 q 435 270 443 264 q 528 290 571 290 q 582 290 594 287 q 596 280 596 276 z m 518 508 q 518 446 339 446 q 320 433 278 431 q 278 442 276 464 q 275 486 275 497 l 275 517 q 275 524 278 533 q 291 533 318 533 q 345 534 359 534 q 379 534 398 526 q 421 530 454 538 l 451 537 q 508 549 516 549 q 518 555 518 508 z"},"K":{"x_min":0,"x_max":933,"ha":933,"o":"m 814 42 l 825 25 l 817 14 q 801 10 801 10 q 720 10 532 124 q 364 225 286 302 q 231 270 200 241 l 204 238 q 175 194 175 69 q 175 50 180 32 l 184 36 l 193 31 q 170 1 104 1 q 91 1 64 6 l 51 23 l 56 33 q 43 58 43 97 q 43 572 60 673 q 56 678 51 688 l 54 698 l 65 702 q 94 702 133 688 q 176 673 193 654 l 183 649 l 183 650 q 176 626 176 602 q 176 425 199 333 q 593 714 748 714 q 794 714 806 691 q 802 685 794 676 l 791 677 q 672 676 556 572 q 494 516 383 371 q 621 218 811 41 z m 484 333 q 569 450 637 511 q 742 606 840 613 l 870 593 q 885 625 901 643 q 898 675 838 690 q 823 735 748 735 q 684 735 648 718 q 607 692 565 666 l 565 666 q 498 626 416 557 q 346 497 276 437 q 270 479 270 555 q 270 555 274 594 l 299 603 q 264 640 208 674 q 151 708 103 719 l 104 718 q 86 723 71 723 q 71 723 36 716 l 20 690 q 19 686 24 680 q 28 673 28 670 q 28 346 16 196 l 16 197 q 11 129 11 97 q 11 59 23 32 q 21 27 21 22 q 21 -9 83 -20 q 80 -41 114 -54 q 140 -64 168 -64 q 250 -64 293 -6 q 282 0 272 6 q 269 10 269 29 q 269 151 303 198 l 301 199 q 314 209 340 225 q 406 176 508 113 l 506 113 q 633 27 673 5 q 779 -54 859 -54 q 859 -54 899 -46 l 919 -17 q 908 7 883 35 l 876 31 q 722 171 484 333 z"},"R":{"x_min":0,"x_max":981,"ha":981,"o":"m 194 585 l 195 580 l 189 580 q 184 556 184 533 q 184 404 203 339 l 203 346 q 212 342 221 342 q 296 342 314 354 q 327 353 342 353 q 407 353 463 377 q 535 408 535 465 q 535 539 523 560 q 505 592 435 592 q 390 592 329 577 q 310 587 221 587 q 208 587 194 585 z m 851 19 l 843 8 l 825 5 q 799 5 752 18 q 706 30 684 43 q 685 40 678 31 l 666 28 q 548 74 369 274 q 313 262 263 262 q 229 262 204 268 q 178 220 178 89 q 178 48 183 28 l 165 4 l 166 3 l 174 6 q 157 -10 141 -14 q 116 -9 66 2 l 53 17 q 52 19 59 27 q 45 54 45 91 q 45 161 50 302 q 56 442 56 513 q 56 639 60 667 l 56 675 l 64 685 q 74 689 96 689 q 141 689 215 678 q 300 666 330 650 q 470 679 503 679 q 675 679 675 541 q 675 435 635 391 q 602 354 494 317 q 709 157 844 31 l 843 31 l 848 25 z m 503 700 q 473 700 450 696 l 451 696 q 412 690 335 674 q 306 688 221 698 l 223 698 l 176 702 q 143 708 116 709 l 119 709 l 89 711 q 28 714 28 664 q 28 321 18 189 l 18 190 q 14 164 14 88 q 14 55 24 31 q 22 25 21 17 q 22 -2 42 -13 q 53 -19 84 -24 q 81 -47 133 -65 q 175 -79 203 -79 q 217 -79 239 -66 q 261 -52 270 -38 l 264 -35 l 278 -17 q 271 6 271 30 q 271 142 288 200 q 337 196 394 202 q 493 109 549 66 q 641 -4 726 -37 q 758 -31 758 -31 q 777 -31 821 -45 q 865 -59 888 -59 q 887 -59 918 -53 l 941 -32 l 968 -32 q 820 109 606 269 q 670 294 705 322 l 705 321 q 748 355 760 390 q 768 414 768 478 q 768 578 685 641 q 608 700 503 700 z m 501 508 l 501 509 q 500 502 500 502 q 500 496 502 484 q 504 471 504 464 q 504 417 443 393 q 398 376 333 376 q 316 376 303 377 q 293 371 283 367 q 278 414 278 484 l 278 505 q 278 509 279 516 l 289 516 l 289 524 q 313 523 338 523 q 367 521 385 511 q 400 513 430 518 l 429 518 q 438 519 463 524 q 485 528 498 528 l 503 528 q 503 514 501 508 z"},"T":{"x_min":0,"x_max":1005,"ha":1005,"o":"m 856 679 q 869 687 881 688 l 896 677 l 898 661 q 899 645 882 624 q 866 604 849 594 q 841 602 845 603 q 818 617 777 619 q 794 618 706 618 q 580 618 530 591 q 535 553 535 516 q 535 471 538 372 q 540 272 540 221 q 540 121 533 50 q 528 49 499 29 q 476 12 444 12 q 418 12 404 20 q 391 42 391 280 q 391 484 396 576 q 332 597 111 597 q 111 597 79 592 l 83 589 l 75 584 q 28 626 30 661 l 31 675 l 45 683 l 63 674 q 91 685 138 683 q 171 682 207 682 q 280 682 422 690 q 564 697 637 697 q 786 697 856 679 z m 634 717 q 581 717 330 709 q 76 701 66 699 l 53 705 q 33 704 11 692 l -3 667 q 6 611 71 551 l 86 561 q 103 535 134 508 q 170 533 175 533 l 221 530 q 286 525 363 525 l 362 499 l 362 83 q 362 34 362 33 q 364 24 389 0 l 426 -8 q 424 -18 435 -28 q 446 -37 456 -45 q 501 -51 501 -51 q 578 -51 610 -5 q 636 32 636 106 q 636 138 630 203 q 624 268 624 297 q 624 324 626 380 q 629 436 629 463 q 629 504 625 537 q 670 554 819 554 q 852 554 876 547 q 878 545 910 522 q 991 573 991 624 q 991 624 983 649 q 968 661 957 664 q 952 665 929 665 l 929 666 l 921 691 q 900 708 888 708 q 884 708 872 706 q 861 703 851 703 q 816 703 743 710 q 670 717 634 717 z"},"P":{"x_min":0,"x_max":765,"ha":765,"o":"m 518 497 q 518 503 522 516 q 525 529 525 536 q 525 569 483 590 q 449 607 412 607 q 390 607 355 599 q 311 588 299 586 q 286 594 268 594 q 192 594 180 584 l 183 584 q 176 560 176 536 q 176 388 188 344 l 185 344 l 193 337 q 207 334 220 334 q 269 334 284 351 l 301 350 q 353 348 415 368 q 486 391 509 429 q 518 445 519 463 q 518 425 518 497 z m 51 676 l 50 678 l 56 688 q 71 692 71 692 q 116 692 194 684 q 294 674 314 660 q 407 691 471 691 q 550 691 600 656 q 658 616 658 541 q 658 406 607 357 q 565 316 424 288 q 266 257 190 259 q 182 238 175 162 q 170 92 171 62 l 173 34 l 174 37 q 174 37 185 32 q 166 0 99 0 q 52 0 48 25 l 51 33 q 43 77 43 133 l 43 569 q 43 631 51 676 z m 11 134 q 11 73 19 35 q 14 29 14 23 q 14 8 40 -6 q 62 -18 79 -20 l 86 -39 q 110 -64 159 -64 q 251 -64 286 0 q 266 6 266 12 q 266 132 278 195 q 345 192 481 221 q 630 252 678 287 q 745 335 745 404 q 745 434 744 434 l 743 437 q 742 441 746 454 q 751 468 751 500 q 751 587 653 653 q 564 712 471 712 q 471 712 433 709 l 434 710 q 377 705 318 686 q 290 699 242 702 q 204 704 165 705 q 142 707 98 712 l 101 712 l 76 713 q 63 714 36 706 l 19 678 q 19 660 15 623 q 11 586 11 568 z m 489 469 q 489 433 450 408 l 453 410 q 402 384 345 376 l 346 376 q 318 371 300 371 q 288 371 273 374 q 273 393 272 431 q 270 469 270 488 q 270 499 275 528 q 309 530 326 530 q 337 530 353 521 q 380 524 414 533 l 413 532 q 478 543 474 543 q 480 543 493 541 q 494 535 494 535 q 494 526 489 511 l 489 512 q 485 504 486 491 q 489 468 489 469 z m 259 526 z m 384 582 z m 446 540 z"},"|":{"x_min":0,"x_max":250,"ha":250,"o":"m 142 673 l 141 -57 q 141 -144 134 -150 l 120 -150 q 120 -150 98 -153 q 87 -164 76 -174 q 64 -185 49 -185 q 49 -185 35 -179 q 23 -156 23 -114 q 23 696 33 710 l 44 707 l 66 709 q 77 719 90 730 q 103 740 116 740 q 116 740 131 735 q 142 713 142 673 z m 156 749 q 137 762 115 762 q 102 762 80 751 q 57 740 50 728 l 18 736 q 9 725 -5 701 l -5 703 l -6 694 l -6 687 q -16 581 -16 407 q -16 315 -12 136 q -9 -43 -9 -113 q -9 -159 2 -179 q 18 -207 59 -207 q 75 -249 115 -249 q 130 -249 152 -238 q 175 -226 176 -212 l 191 -214 q 191 -214 219 -208 l 233 -187 q 233 -51 234 222 q 236 494 236 630 q 236 674 219 706 q 191 724 169 718 z"},"t":{"x_min":0,"x_max":621,"ha":621,"o":"m 249 433 q 249 431 251 431 q 253 431 254 433 q 254 379 254 271 q 253 223 253 223 q 248 223 251 220 q 254 217 255 220 q 252 179 252 174 q 252 107 305 107 q 318 107 378 120 q 409 99 444 99 q 470 99 475 129 q 514 85 514 45 l 513 32 l 501 24 l 489 33 q 470 12 440 12 q 415 12 346 41 q 316 31 286 22 q 248 11 224 11 q 182 11 152 44 q 121 76 121 118 q 121 137 129 178 l 129 177 q 117 209 117 327 q 117 343 125 428 q 80 442 63 442 l 64 441 l 66 440 q 66 440 61 433 q 36 453 36 492 l 38 506 l 49 516 q 43 522 69 523 q 84 523 121 507 q 110 543 110 611 q 110 658 167 658 q 226 658 244 646 l 253 632 l 250 631 l 250 587 q 250 537 253 520 q 297 545 380 545 q 404 545 426 535 l 431 535 l 446 523 l 446 507 q 448 471 421 458 q 415 466 386 466 q 295 466 253 442 q 254 441 252 438 q 249 434 249 433 z m 243 431 l 243 430 l 244 432 z m 243 219 l 243 218 l 244 218 z m 435 558 l 433 557 q 399 569 344 564 q 343 566 348 568 q 343 624 279 635 q 262 678 183 678 q 124 678 100 659 q 76 640 76 594 q 76 573 81 542 q 78 544 44 544 q 31 537 8 515 l 5 490 q 5 447 88 379 l 86 350 l 86 267 q 86 208 98 173 q 90 152 90 119 q 90 78 116 43 q 142 8 181 -3 q 222 -53 289 -53 q 315 -53 340 -45 l 339 -45 q 370 -37 406 -25 q 460 -52 504 -52 q 530 -52 554 -40 l 558 -42 q 583 -37 601 -23 q 608 1 608 4 q 608 31 573 71 q 546 100 518 129 l 506 127 q 496 141 484 145 q 473 149 462 161 l 444 127 q 440 121 441 121 q 404 130 386 145 l 349 133 l 349 183 l 348 198 l 349 205 l 348 204 q 346 249 346 339 l 348 379 l 350 380 l 348 389 q 415 404 448 402 l 459 401 l 475 385 q 540 417 540 472 q 540 472 532 495 q 515 509 498 515 l 495 514 l 478 519 q 462 547 435 558 z m 409 -26 l 406 -25 q 407 -26 407 -26 l 407 -26 l 408 -25 z"},"M":{"x_min":0,"x_max":1033,"ha":1033,"o":"m 913 681 q 926 656 926 617 q 926 546 917 404 q 908 262 908 191 q 908 175 910 139 q 913 103 913 84 q 913 58 909 39 q 909 39 920 23 l 905 11 q 813 16 770 59 l 780 62 q 783 98 783 135 q 783 215 775 475 q 713 390 630 310 q 517 200 458 201 q 417 222 314 366 q 227 487 186 561 q 174 450 174 99 q 174 67 180 35 l 189 31 q 157 2 98 2 q 85 2 63 7 l 53 22 l 61 34 q 52 77 52 136 q 52 352 63 674 q 58 681 58 688 l 64 698 l 80 702 q 117 702 164 689 q 219 674 240 653 l 239 652 q 264 622 489 331 q 574 473 599 512 q 665 614 724 681 q 753 714 851 714 q 888 714 909 702 l 916 689 z m 851 735 q 766 735 696 680 q 643 638 588 552 q 543 477 499 402 q 447 471 340 605 l 344 608 q 295 651 237 682 q 167 719 114 719 l 118 719 l 81 722 q 81 722 44 716 l 26 688 q 35 654 35 562 q 35 483 28 326 q 20 169 20 139 q 20 75 28 38 q 21 31 21 21 l 40 -8 l 84 -20 q 84 -62 161 -62 q 236 -62 293 -9 l 271 3 q 268 31 268 68 q 268 117 271 220 q 274 315 274 373 q 438 137 531 137 q 549 137 561 142 l 558 141 q 615 161 661 203 q 703 244 746 286 q 746 262 750 194 q 753 137 751 103 l 750 77 l 729 60 q 775 14 837 -18 q 906 -54 963 -54 q 963 -54 999 -46 l 1014 -20 q 1015 -13 1015 -3 q 1015 16 1008 73 q 1001 127 1001 149 l 1005 275 q 1019 394 1019 581 q 1019 609 1008 637 l 1010 647 l 989 679 l 948 690 l 938 713 q 914 735 851 735 z m 30 674 l 29 677 l 29 677 q 30 677 30 676 z m 1008 641 l 1006 639 l 1006 640 q 1007 640 1008 641 z"},"g":{"x_min":0,"x_max":785,"ha":785,"o":"m 538 426 l 528 427 q 502 455 454 455 q 435 455 412 448 q 372 435 371 435 q 324 427 277 420 q 225 411 201 389 q 170 360 170 297 q 170 275 176 258 q 169 219 169 192 q 169 154 200 128 q 230 102 268 102 q 285 102 318 108 q 350 113 367 113 q 476 113 521 178 l 530 179 l 529 179 q 541 218 541 381 q 541 403 535 426 z m 664 511 q 678 475 678 429 q 678 366 672 253 q 664 115 655 89 l 644 79 q 653 36 653 -23 q 653 -97 590 -125 q 548 -144 455 -147 q 352 -150 329 -156 q 319 -159 267 -181 q 232 -195 199 -195 q 145 -195 113 -153 l 99 -160 q 95 -160 90 -152 q 86 -143 86 -138 q 86 -86 115 -62 q 119 -62 125 -58 q 172 -100 240 -100 q 261 -100 292 -88 q 324 -76 338 -75 q 376 -73 414 -71 q 466 -67 494 -51 q 531 -31 531 11 q 531 52 524 93 q 444 14 239 14 q 112 14 70 116 q 45 177 45 325 q 45 450 142 486 q 192 504 348 504 q 401 543 454 543 q 503 543 538 496 l 544 507 l 540 508 q 560 526 558 527 q 587 543 628 543 q 627 543 658 537 l 670 519 z m 619 564 q 565 564 534 541 l 539 546 l 539 541 l 544 529 q 500 564 439 564 l 429 563 l 431 563 q 382 555 335 525 q 180 527 116 500 q 14 457 14 324 q 14 193 26 146 q 50 52 135 14 l 136 13 q 194 -49 303 -49 q 343 -49 376 -41 l 375 -42 l 379 -41 l 391 -41 q 405 -41 433 -37 l 481 -29 q 475 -35 368 -56 q 260 -78 241 -78 q 186 -78 128 -25 l 116 -32 l 114 -31 q 55 -79 55 -142 q 55 -164 101 -189 l 106 -184 l 112 -189 q 120 -192 119 -193 q 133 -215 164 -231 l 169 -227 q 210 -258 273 -258 q 303 -258 380 -238 q 462 -216 509 -212 l 508 -212 q 635 -205 684 -176 q 746 -139 746 -43 q 746 -11 740 29 q 756 58 765 201 q 771 303 771 391 q 771 430 759 467 q 764 473 764 479 q 764 514 701 521 q 704 543 670 555 q 645 564 619 564 z m 510 375 q 510 363 509 339 q 508 315 508 303 l 508 303 q 509 263 501 200 q 476 136 340 136 q 329 136 304 130 q 280 123 268 123 q 263 137 263 150 q 263 175 269 201 l 269 199 q 270 204 270 218 q 270 224 267 238 q 264 252 264 258 q 264 303 286 331 l 284 329 q 310 354 361 361 q 445 372 445 372 q 464 380 509 391 q 510 384 510 375 z"},"j":{"x_min":0,"x_max":281,"ha":281,"o":"m 155 413 q 155 -9 157 205 q 156 42 144 17 q 148 0 148 -30 q 148 -98 65 -136 q -4 -168 -80 -162 q -119 -201 -162 -201 q -193 -201 -216 -164 l -225 -167 l -235 -154 l -236 -139 q -239 -102 -216 -75 l -210 -78 l -201 -66 q -188 -110 -158 -110 q -141 -110 -106 -88 q 23 -90 23 25 q 23 45 20 70 l 26 71 q 24 73 21 71 q 28 116 28 167 q 28 340 20 442 l 19 441 l 26 507 l 20 507 q 21 528 51 540 q 74 549 99 549 q 139 549 150 498 q 155 476 155 413 z m 159 613 l 136 613 q 119 614 88 611 q 54 608 39 608 q 30 608 20 609 q 17 622 17 665 q 17 683 25 698 q 62 712 115 712 q 123 712 166 708 q 174 698 174 686 q 174 628 159 613 z m 268 642 q 268 663 249 685 l 205 689 q 198 713 186 728 l 113 734 q 69 737 -1 712 q -14 687 -14 643 q -14 616 -8 591 q 11 591 38 589 q 47 586 51 562 q -8 540 -13 485 l -8 485 l -10 465 l -24 382 l -9 392 q -3 365 -2 319 q 0 286 -1 232 q -3 160 -3 152 q -3 128 -8 91 l -8 92 q -9 92 -10 71 l -13 65 l -10 64 q -11 27 -11 -9 q -17 -46 -58 -62 l -56 -62 q -74 -68 -115 -67 l -119 -54 l -153 -86 l -155 -87 l -160 -83 q -167 -69 -181 -12 l -216 -44 l -224 -40 q -268 -91 -268 -144 q -268 -166 -239 -189 l -235 -189 q -227 -199 -206 -210 q -184 -221 -176 -231 l -173 -231 q -147 -252 -136 -257 q -120 -264 -90 -264 q -44 -264 -1 -226 q 2 -226 109 -204 l 108 -204 q 245 -176 245 -78 q 245 -56 238 -30 q 249 -3 249 114 l 249 356 q 249 437 243 461 q 229 520 176 527 l 163 548 q 175 549 239 549 q 268 581 268 642 z"},"i":{"x_min":0,"x_max":279,"ha":279,"o":"m 161 223 l 161 75 q 161 73 159 38 q 149 32 142 31 q 133 31 124 31 q 114 29 95 16 q 76 3 61 3 q 48 3 34 14 q 34 33 32 72 q 31 110 31 130 q 31 151 29 250 q 28 336 28 386 q 30 459 36 502 q 42 508 86 524 q 130 539 141 539 q 145 539 150 532 q 156 525 156 521 q 162 479 163 423 q 164 386 163 321 q 161 247 161 223 z m 159 613 l 152 613 q 134 614 105 598 q 76 582 63 582 q 34 582 26 621 q 22 637 22 682 q 22 691 26 699 q 39 681 68 681 q 79 681 104 696 q 128 710 147 710 q 165 710 169 700 q 172 695 172 674 q 172 626 159 613 z m 250 481 q 236 504 226 511 q 213 519 188 517 q 188 528 181 537 q 207 552 239 549 q 265 579 265 632 q 265 651 258 672 q 237 690 203 688 q 201 698 196 714 q 176 731 149 731 q 115 731 81 712 l 80 715 q 73 715 68 702 q 52 711 18 757 q -9 693 -9 658 q -9 561 63 561 q 66 551 73 542 q 71 541 32 530 q 5 521 5 503 l 5 505 q -5 438 -5 342 q -5 305 -3 234 q -1 162 -1 128 q -1 108 1 68 q 3 29 3 9 q 12 -7 41 -13 q 65 -18 65 -33 q 81 -60 123 -60 q 153 -60 185 -37 l 183 -40 l 194 -33 q 235 -36 248 -21 q 255 -4 255 45 q 255 118 252 264 q 250 409 250 481 z"},"y":{"x_min":0,"x_max":845,"ha":845,"o":"m 593 505 q 618 540 685 540 q 693 540 723 535 l 738 518 l 729 503 q 516 152 320 -155 q 294 -196 213 -196 q 193 -196 179 -185 l 175 -173 q 177 -160 186 -164 q 238 -108 314 37 q 239 122 162 264 q 43 481 30 501 q 31 504 25 517 l 41 530 q 136 520 169 477 l 169 476 q 241 369 381 154 q 501 373 593 504 z m 394 236 q 348 302 263 438 l 260 442 l 260 441 q 229 477 163 513 q 93 551 48 551 q 48 551 9 542 l -6 513 q -1 501 -1 498 l 14 473 l 14 474 l 20 464 l 19 465 q 54 416 101 314 l 101 315 q 124 250 158 204 l 156 205 q 211 114 279 35 q 258 -9 226 -59 l 228 -58 q 211 -82 178 -129 l 150 -130 q 150 -140 147 -152 q 144 -163 144 -174 q 144 -212 206 -217 q 206 -260 284 -260 q 323 -260 358 -248 q 402 -232 413 -202 l 411 -206 q 445 -153 510 -48 l 510 -48 q 601 103 789 403 q 831 467 831 476 q 831 507 769 518 q 769 518 762 538 q 740 561 684 561 q 597 561 561 511 l 561 510 q 479 389 394 236 z m 5 492 l 4 493 l 4 492 z"},"@":{"x_min":0,"x_max":1226,"ha":1226,"o":"m 716 236 q 722 290 722 387 q 722 410 716 433 l 718 434 l 709 435 q 686 458 646 458 q 634 458 612 451 q 591 444 583 444 q 417 436 417 338 q 417 330 419 314 q 421 299 421 292 q 421 283 418 264 q 416 245 416 236 q 416 204 442 182 q 468 161 501 161 q 515 161 544 164 q 574 167 589 167 q 658 167 716 236 z m 820 168 q 870 155 936 155 l 935 159 l 941 166 q 975 175 999 194 q 1028 218 1028 249 q 1028 291 995 327 q 1006 371 1006 402 q 1006 631 739 631 q 706 631 643 622 q 580 612 548 612 q 319 612 237 534 q 155 457 155 233 q 155 110 242 46 q 320 -11 447 -11 q 472 -11 520 -2 q 569 8 593 8 q 606 8 637 1 q 668 -6 685 -6 q 761 -6 808 45 q 835 14 841 -24 l 831 -41 l 813 -30 q 771 -76 692 -76 q 645 -76 591 -55 q 503 -76 417 -76 q 264 -76 169 -4 q 64 75 64 223 q 64 239 63 279 q 62 319 62 341 q 62 444 81 497 q 123 612 303 653 q 408 677 593 677 q 619 677 676 688 q 734 699 764 699 q 910 699 999 637 q 1101 566 1101 426 q 1101 378 1088 325 q 1119 276 1119 235 q 1119 188 1088 156 q 1056 123 1008 113 l 1009 109 q 989 96 954 96 q 784 96 728 118 l 735 122 q 730 142 716 159 q 678 109 601 93 q 560 85 465 85 q 394 85 350 117 q 300 154 300 222 q 300 389 345 445 q 398 510 564 510 q 572 510 601 520 q 630 531 645 531 q 677 531 715 501 q 723 509 723 511 q 723 510 711 514 q 738 539 784 539 q 791 539 819 535 q 827 526 823 522 q 836 480 836 434 l 836 347 q 836 216 820 168 z m 1040 637 q 945 720 765 720 q 611 720 441 696 q 220 666 139 610 l 140 610 q 88 578 60 520 q 32 463 32 398 q 32 365 40 334 l 40 335 q 45 335 43 311 q 42 303 36 267 q 32 239 32 222 q 32 99 106 19 l 105 20 q 254 -140 479 -140 q 561 -140 651 -121 q 702 -139 771 -139 q 831 -139 880 -102 l 901 -107 q 935 -88 935 -65 q 935 -36 876 37 q 941 32 1023 32 q 1077 32 1142 75 q 1214 123 1214 178 q 1214 232 1183 284 q 1194 335 1194 385 q 1194 520 1101 596 l 1103 595 q 1098 599 1045 632 l 1039 638 z m 589 189 q 584 189 574 190 q 565 192 560 192 q 564 192 538 187 l 538 186 q 529 186 511 184 q 510 189 510 194 q 510 202 512 220 q 515 237 515 246 q 515 254 512 270 q 510 286 510 294 q 510 346 561 366 q 592 378 655 380 q 669 385 690 391 l 690 326 q 690 286 685 242 q 640 189 589 189 z m 510 530 l 511 530 q 415 526 349 481 q 271 428 271 338 q 271 330 274 312 q 276 295 276 287 q 276 278 272 256 q 269 233 269 222 q 269 159 314 114 l 314 115 q 324 103 348 90 q 372 77 376 71 l 376 72 q 427 17 548 22 q 525 17 488 13 l 489 13 q 466 10 446 10 q 342 10 298 46 q 249 86 249 188 q 249 199 255 222 q 261 246 261 258 q 261 268 256 291 q 250 314 250 326 q 250 536 598 547 q 572 540 510 530 z m 856 527 l 841 552 q 790 560 781 560 q 740 560 705 538 q 688 545 666 549 q 741 567 801 567 q 893 567 931 538 q 975 504 975 415 q 975 354 963 322 q 996 286 996 248 q 996 216 926 187 q 930 213 930 303 l 930 385 q 930 438 916 479 l 919 484 l 904 510 q 891 511 877 513 q 856 516 854 521 z m 686 15 q 650 15 605 28 q 620 26 638 26 q 655 26 669 30 l 664 28 q 720 36 761 64 q 767 62 778 58 q 728 15 686 15 z m 843 42 q 850 41 864 39 q 863 37 853 27 q 849 32 843 42 z"},".":{"x_min":0,"x_max":293,"ha":293,"o":"m 180 147 q 185 136 185 125 q 185 121 184 112 q 183 103 183 98 q 183 92 184 80 q 185 69 185 63 l 185 25 q 180 21 135 21 q 123 21 99 18 q 75 15 63 15 q 47 15 33 20 q 28 31 28 63 q 28 72 26 96 q 25 118 26 130 l 26 142 l 31 145 q 165 151 149 151 q 165 151 180 147 z m 216 130 q 214 142 209 155 q 186 173 146 173 q 124 173 81 170 q 38 167 18 167 l -4 152 q -6 144 -6 127 q -6 61 -6 64 q -4 26 8 4 q 26 -3 59 -6 q 62 -26 70 -38 q 96 -48 128 -48 q 145 -48 180 -46 q 215 -43 233 -43 q 255 -43 258 -42 l 279 -27 l 279 84 q 279 111 259 121 q 248 127 216 130 z"},"p":{"x_min":0,"x_max":784,"ha":784,"o":"m 357 426 q 308 426 262 409 q 209 390 184 355 l 178 358 q 172 331 172 304 q 172 143 183 99 l 188 102 q 217 67 265 67 q 284 67 306 76 q 343 90 345 90 q 360 92 390 95 q 536 115 540 235 q 540 243 538 257 q 535 271 535 278 q 535 289 540 312 q 546 336 546 348 q 546 385 516 412 q 486 438 448 438 q 432 438 402 432 q 373 426 357 426 z m 54 493 q 48 503 48 509 l 49 519 l 61 522 q 90 522 126 508 q 166 493 180 472 l 169 469 l 161 482 q 166 452 178 432 q 199 471 254 494 q 304 516 359 516 q 387 516 410 509 q 464 526 510 526 q 586 526 631 479 q 676 432 676 355 q 676 332 671 286 q 666 240 666 215 q 666 132 615 89 q 577 56 497 39 q 432 25 366 11 q 344 4 321 -4 q 295 -12 274 -12 q 214 -12 186 20 q 160 -81 166 -195 l 168 -234 l 169 -231 l 180 -235 q 163 -267 93 -267 q 86 -267 60 -260 l 48 -242 l 50 -233 q 37 -204 37 -158 q 37 390 54 493 z m 19 341 q 18 275 11 89 q 5 -70 5 -163 q 5 -217 17 -244 q 34 -281 79 -287 q 95 -331 156 -331 q 243 -331 288 -256 l 259 -258 l 259 -244 q 259 -177 271 -65 q 300 -76 336 -76 q 391 -76 514 -43 q 645 -8 684 21 l 683 21 q 736 61 749 112 q 755 137 755 224 q 755 237 762 268 q 770 299 770 315 q 770 415 678 487 q 591 555 493 547 l 483 547 q 443 544 358 537 l 318 534 l 318 535 q 248 525 196 490 q 174 513 136 528 q 97 544 65 544 q 65 544 30 537 q 16 517 16 510 q 16 509 18 502 q 21 496 21 488 z m 510 374 q 515 360 515 348 q 515 337 510 314 q 504 292 504 282 q 504 269 506 258 l 506 259 q 509 246 509 235 q 509 187 479 156 l 479 156 q 451 129 394 118 q 314 102 301 97 q 290 97 271 88 q 265 144 265 250 q 265 272 269 297 q 323 361 433 361 q 446 361 472 367 q 498 373 510 374 z"},"X":{"x_min":0,"x_max":959,"ha":959,"o":"m 803 708 q 802 708 835 704 l 851 686 q 815 624 518 365 q 564 337 696 200 q 828 63 849 18 l 829 5 q 719 21 611 108 q 539 166 438 286 q 399 228 316 145 q 232 62 175 25 l 179 25 q 148 -5 88 -5 q 71 -5 41 0 l 25 17 q 55 65 181 181 q 271 260 360 340 q 302 373 181 499 q 57 627 33 683 l 38 693 l 51 697 q 143 697 265 595 q 331 540 440 420 q 494 511 598 602 q 720 708 803 708 z m 504 540 l 504 541 l 445 475 q 388 527 331 579 q 257 644 201 676 q 125 718 55 718 q 55 718 19 710 l 1 680 q 17 642 135 513 l 134 513 q 241 388 318 337 q 230 261 143 184 q 28 81 -6 20 l 16 -11 l 56 -25 q 74 -69 149 -69 q 203 -69 260 -30 l 259 -32 q 373 40 495 189 q 730 -59 888 -59 q 887 -59 924 -51 l 943 -21 q 937 -7 926 3 l 929 0 q 741 242 621 324 q 778 467 793 481 q 942 621 945 643 l 925 675 l 883 686 l 874 707 q 853 729 803 729 q 719 729 636 667 q 587 631 504 540 z"},"*":{"x_min":0,"x_max":765,"ha":765,"o":"m 656 422 q 656 390 620 390 q 611 390 600 395 l 600 396 q 530 425 389 481 q 391 444 395 342 q 396 313 334 313 q 317 313 306 322 q 299 351 308 473 q 273 452 193 419 q 103 381 79 381 q 49 381 41 422 q 47 441 140 475 q 200 496 260 517 q 191 519 138 537 q 63 563 53 615 q 41 624 41 634 q 41 648 51 657 q 61 666 74 666 q 79 666 95 660 l 95 660 q 165 629 309 575 q 304 646 304 714 q 304 743 366 743 q 383 743 393 733 q 394 730 389 582 q 454 627 600 670 l 600 671 q 607 674 608 674 q 649 674 658 634 q 645 613 554 580 q 493 559 433 538 q 478 533 558 496 q 647 454 656 422 z m 684 445 l 685 445 q 685 447 680 448 q 674 450 673 451 q 647 471 621 487 l 623 487 l 590 506 q 657 527 680 537 q 741 563 751 592 q 751 614 729 634 q 707 654 685 652 q 658 695 608 695 q 598 695 549 678 q 505 663 488 655 q 487 671 490 684 q 478 722 426 722 l 428 727 q 415 764 364 764 q 309 764 288 744 q 272 729 272 691 q 272 681 274 654 q 275 626 275 609 q 226 630 126 671 l 126 673 l 114 677 l 111 677 q 84 688 75 688 q 50 688 30 672 q 10 656 10 632 q 36 578 63 553 q 77 539 139 497 q 77 476 65 471 q 10 446 10 422 q 10 397 32 379 q 50 364 76 360 q 102 317 139 317 q 180 317 274 359 l 273 330 q 271 294 335 292 q 335 249 400 249 q 453 249 474 269 q 490 286 490 323 q 490 335 488 359 q 486 389 485 400 q 535 379 585 358 q 662 326 683 326 q 707 326 727 338 q 751 352 751 375 q 751 397 727 417 q 722 421 684 445 z"},"Y":{"x_min":0,"x_max":945,"ha":945,"o":"m 685 690 q 715 719 785 719 q 793 719 821 715 l 838 698 q 823 666 788 604 q 697 478 494 331 q 501 290 501 123 q 501 91 494 64 l 499 65 l 496 49 q 469 21 409 21 q 383 21 367 33 l 361 48 l 366 49 q 357 84 357 169 q 357 258 365 306 q 329 320 185 489 q 45 654 25 698 l 43 711 q 123 702 164 674 l 163 678 l 429 403 q 457 447 518 508 q 599 590 614 607 l 669 672 q 685 690 685 690 z m 628 665 l 628 666 l 541 569 l 434 456 l 220 673 l 194 684 l 154 706 l 131 715 q 74 733 49 733 q 49 733 12 723 l -8 694 q 8 660 28 643 l 26 643 q 39 643 49 625 q 64 599 68 595 l 68 596 q 100 569 194 435 q 276 319 331 295 q 326 246 326 150 q 326 136 329 98 q 331 65 330 46 l 349 14 q 375 3 393 1 q 408 -42 471 -42 l 503 -39 l 504 -39 l 533 -32 l 560 -23 l 584 -6 q 595 14 595 115 q 595 217 589 282 l 661 339 l 661 338 q 778 441 779 442 q 844 503 882 559 q 896 591 931 650 q 925 674 909 684 q 897 692 869 697 q 852 740 784 740 q 700 740 659 702 l 654 696 l 654 694 z"},"c":{"x_min":0,"x_max":741,"ha":741,"o":"m 593 157 l 613 143 l 610 141 q 628 109 628 67 q 620 52 601 57 q 567 19 485 19 q 468 19 432 25 q 397 31 381 31 q 361 31 318 21 q 274 11 252 11 q 152 11 98 63 q 44 115 44 214 l 44 324 q 44 446 158 491 q 232 520 380 520 q 396 520 434 531 q 472 542 493 542 q 574 542 601 490 l 611 492 q 614 492 621 485 q 628 478 628 475 q 628 426 610 405 l 613 401 l 605 399 l 580 389 q 567 421 528 440 q 494 457 457 457 q 438 457 402 450 q 367 443 349 443 q 273 443 224 407 q 169 367 169 294 q 169 191 183 156 q 208 93 296 93 q 298 93 374 106 q 376 107 408 104 q 440 102 446 102 q 486 102 521 115 q 564 131 580 161 q 592 154 593 157 z m 371 129 q 368 129 356 125 q 344 121 340 121 l 341 121 l 316 116 l 319 116 l 296 114 l 276 115 q 255 155 266 201 l 266 199 q 269 209 266 227 q 263 251 263 257 q 263 358 394 377 l 390 377 q 390 377 400 377 q 432 379 440 377 q 479 394 518 394 l 538 391 q 553 372 564 348 l 588 362 q 612 338 626 305 l 651 320 l 655 319 q 686 339 728 354 l 709 365 l 720 407 l 723 426 q 723 451 683 470 q 650 506 590 535 q 529 564 483 564 q 459 564 427 555 q 385 543 374 541 q 292 532 210 523 q 116 509 71 471 q 13 422 13 319 l 13 215 q 13 107 73 51 l 71 52 q 80 43 107 26 q 134 10 135 8 l 134 9 q 195 -54 315 -54 q 343 -54 369 -48 l 368 -49 q 438 -41 444 -34 q 489 -44 549 -44 q 630 -44 676 -9 q 695 -8 713 4 l 723 30 q 727 42 709 93 l 720 100 q 681 127 660 149 l 654 144 q 618 170 598 191 l 589 185 l 569 200 q 531 127 444 127 q 433 127 409 128 q 385 129 371 129 z"},"!":{"x_min":0,"x_max":278,"ha":278,"o":"m 29 12 q 25 24 25 35 l 25 61 q 25 92 31 107 q 60 108 87 124 q 114 139 124 139 q 157 139 166 103 q 168 90 168 38 q 168 29 163 21 q 151 36 127 36 q 113 36 89 20 q 65 5 50 5 q 39 5 29 12 z m 170 688 l 171 670 q 175 620 175 565 q 175 424 153 229 l 151 229 l 144 218 q 123 208 101 198 q 73 187 55 187 q 43 196 41 205 q 22 311 22 670 q 22 670 24 686 q 31 686 44 684 q 56 683 62 683 q 76 683 98 697 q 121 711 139 711 q 153 711 170 688 z m 56 -14 q 59 -58 113 -58 q 134 -58 154 -47 q 189 -28 190 -28 q 207 -43 230 -72 q 263 -13 263 0 q 263 58 255 78 q 240 114 193 118 q 192 122 186 129 q 181 136 181 140 q 181 141 206 152 q 232 162 236 166 l 246 166 q 243 245 253 387 q 264 545 264 609 l 264 649 q 241 685 214 689 l 208 690 l 201 691 q 175 733 138 733 q 119 733 90 720 q 62 707 45 707 l -5 707 q -9 678 -9 653 q -9 612 0 410 q 8 207 10 203 q 22 177 41 166 l 71 167 q 72 164 75 158 q 78 151 78 147 q 78 139 46 133 q 24 128 8 127 q -6 91 -6 53 q -6 26 -3 8 q 17 -20 56 -14 z"},"/":{"x_min":0,"x_max":716,"ha":716,"o":"m 565 759 q 565 759 597 752 l 609 730 l 601 716 q 521 560 377 306 q 204 1 149 -101 q 127 -141 79 -141 q 59 -141 34 -133 l 24 -112 q 39 -67 80 1 q 114 56 148 110 q 204 203 312 414 q 415 614 479 717 q 505 759 565 759 z m -8 -116 q -8 -135 15 -149 q 34 -161 55 -162 q 73 -205 138 -205 q 218 -205 240 -151 l 240 -152 q 326 -15 457 234 q 607 519 669 625 q 703 682 703 691 q 703 710 679 725 q 659 737 639 739 q 620 781 571 781 q 483 781 450 726 q 418 671 205 280 q -8 -110 -8 -116 z"},"[":{"x_min":0,"x_max":493,"ha":493,"o":"m 163 -80 l 174 -83 q 200 -83 254 -76 q 308 -69 336 -69 q 336 -69 358 -62 l 356 -59 l 355 -58 l 365 -59 q 382 -103 385 -139 l 376 -150 l 366 -139 l 306 -137 q 271 -135 210 -155 q 150 -175 118 -175 q 66 -175 45 -144 q 30 -120 30 -70 q 30 -58 31 -32 q 32 -6 32 7 q 32 698 44 713 q 57 715 79 712 q 107 709 114 709 q 146 709 205 728 q 264 746 297 746 q 339 746 366 725 l 376 731 l 385 712 q 377 671 366 647 q 356 649 358 654 l 342 671 q 317 677 317 677 q 267 677 231 662 q 209 652 186 633 q 163 614 154 611 l 152 577 q 145 444 145 298 q 145 121 155 -71 q 156 -72 163 -80 z m 383 766 l 365 754 q 334 768 296 768 q 259 768 187 752 q 115 736 55 736 q 55 736 20 729 q -1 693 -1 325 q -1 245 0 136 q 1 27 1 19 q 1 6 0 -20 q -1 -47 -1 -61 q -1 -169 70 -190 q 80 -215 117 -228 q 147 -239 180 -239 q 216 -239 284 -219 q 351 -199 390 -201 l 410 -201 l 419 -225 q 444 -214 453 -208 q 466 -200 479 -181 q 472 -140 451 -81 l 424 -80 l 422 -75 l 394 -54 l 389 -38 l 361 -37 q 357 -29 324 -6 l 325 -48 q 275 -43 255 -47 l 258 -46 q 258 -7 249 162 q 240 331 240 421 q 240 514 248 567 l 239 553 q 268 573 298 593 q 329 613 373 613 l 388 609 l 388 597 q 407 584 453 583 q 471 623 479 669 q 467 698 445 723 l 428 711 l 415 717 q 407 740 383 766 z m 409 -200 l 405 -196 l 405 -193 q 405 -192 405 -192 q 406 -194 408 -196 l 406 -196 q 406 -197 409 -200 z"},"6":{"x_min":0,"x_max":806,"ha":806,"o":"m 559 252 q 564 264 564 298 q 564 333 525 358 q 490 379 453 379 q 432 379 393 372 q 354 364 332 364 q 234 364 165 306 q 171 292 183 280 q 176 249 176 223 q 176 161 212 126 q 248 92 310 92 q 324 92 381 103 q 418 108 454 113 q 504 122 530 138 q 566 160 566 200 q 566 234 559 252 z m 595 593 q 580 633 546 633 q 529 633 497 624 q 465 615 446 615 q 344 615 268 562 q 182 503 186 406 l 186 394 q 234 427 325 445 q 399 459 472 459 q 588 459 638 408 q 689 358 689 246 q 689 236 694 213 q 699 190 699 178 q 699 105 641 70 q 596 43 512 37 q 447 35 381 34 q 362 34 318 23 q 273 12 250 12 q 46 12 46 233 q 46 261 48 316 q 51 372 51 401 q 51 561 202 637 q 319 696 499 696 q 543 729 576 729 q 593 729 602 719 q 606 715 616 695 l 626 699 l 639 686 l 640 671 q 643 634 610 601 q 607 604 595 593 z m 570 750 q 530 750 484 717 q 390 717 247 674 q 128 638 75 575 q 30 521 19 428 q 15 389 15 227 q 15 131 60 70 l 59 71 q 86 22 172 -16 q 251 -52 313 -52 q 340 -52 383 -42 q 432 -31 451 -30 q 524 -27 597 -24 q 682 -18 734 18 l 734 17 q 793 57 793 155 q 793 265 777 302 q 758 351 679 407 q 623 447 582 463 q 534 481 471 481 q 444 481 424 478 l 425 478 q 398 475 346 467 l 348 467 q 348 466 334 466 l 335 467 l 310 462 q 362 532 476 550 l 475 549 q 506 554 554 549 l 569 558 q 573 558 573 551 q 574 539 574 539 l 608 569 q 621 554 636 496 l 678 533 l 684 531 q 702 550 718 577 q 737 611 734 630 q 728 662 666 706 q 605 750 570 750 z m 529 246 q 529 239 532 224 q 534 208 534 201 q 534 162 485 144 q 465 136 405 126 l 409 126 q 392 126 363 120 l 363 121 q 354 121 336 117 q 319 113 310 113 q 297 113 285 115 q 270 141 270 188 q 270 204 274 222 l 274 221 q 276 229 276 241 q 272 247 265 254 q 301 286 345 294 q 366 297 434 297 q 442 297 471 306 q 500 315 514 315 q 519 315 529 314 q 533 306 533 297 q 533 289 531 272 q 529 255 529 246 z m 599 712 q 600 713 605 715 q 603 714 599 712 z m 484 311 l 485 311 q 486 311 489 312 z"},"r":{"x_min":0,"x_max":645,"ha":645,"o":"m 160 484 q 160 462 171 427 q 277 520 358 520 q 373 520 399 513 q 431 535 460 535 q 460 535 481 527 l 489 512 l 494 513 q 508 505 508 497 q 508 453 491 431 l 493 430 l 490 430 q 482 418 479 418 q 477 418 476 420 l 468 414 q 452 438 428 438 q 401 438 366 425 q 351 428 337 428 q 294 428 248 400 q 210 372 171 345 q 164 223 164 26 l 159 24 q 159 24 171 23 q 153 -3 89 -3 q 52 -3 41 19 q 43 26 40 210 q 37 426 37 426 q 37 432 39 472 q 42 509 41 512 q 48 523 59 523 q 84 523 119 514 q 160 502 171 488 q 160 484 160 484 z m 98 540 q 81 545 61 545 q 42 545 28 538 q 9 528 9 512 q 9 509 11 507 q 4 450 3 375 q 2 323 3 238 q 5 135 5 105 q 5 75 11 22 q 9 21 9 18 q 9 12 16 2 q 24 -9 31 -12 q 50 -20 73 -23 q 72 -24 81 -45 q 106 -67 146 -67 q 235 -67 284 2 l 258 2 q 258 167 264 294 l 279 305 l 279 304 q 320 336 339 346 q 369 362 403 362 q 417 362 434 360 q 476 376 489 374 q 502 358 515 331 l 539 347 l 541 345 q 557 356 557 363 q 557 367 554 370 q 550 374 550 374 q 552 375 578 375 l 590 394 q 598 414 601 433 l 600 432 q 603 432 603 446 q 603 470 544 513 q 485 556 456 556 q 425 556 391 537 q 372 541 356 541 l 333 539 l 334 540 q 264 531 206 488 q 173 524 113 536 l 96 540 z m 253 285 q 254 286 256 288 l 256 287 z"},"2":{"x_min":0,"x_max":838,"ha":838,"o":"m 44 26 l 29 42 q 31 121 158 194 q 392 330 392 330 q 518 426 518 559 q 518 593 489 611 q 465 627 429 627 q 394 627 345 603 q 310 611 270 611 q 140 611 101 549 q 96 554 90 556 q 84 562 77 568 q 70 575 71 579 q 55 626 58 649 l 70 663 l 84 656 q 119 700 231 700 q 283 700 349 686 q 423 714 492 714 q 564 714 607 681 q 655 645 655 575 q 655 427 491 293 q 421 235 199 108 q 236 101 264 102 q 300 103 385 113 q 463 122 506 122 q 523 122 565 120 q 602 119 624 120 q 656 120 683 124 l 681 124 l 689 128 q 733 85 730 37 l 716 30 l 699 40 q 656 36 579 36 q 495 36 460 34 q 425 31 331 18 q 251 7 202 7 q 185 7 116 19 q 54 29 44 26 z m 694 162 l 665 143 q 631 139 554 142 q 482 144 443 138 l 445 139 l 433 137 q 578 227 646 298 q 749 407 749 534 q 749 616 659 679 q 577 735 490 735 l 451 732 l 453 733 q 438 731 397 719 q 361 709 345 709 q 324 709 279 716 q 234 722 211 722 q 125 722 75 684 l 69 686 q 49 679 33 666 q 26 650 26 632 q 26 620 32 598 q 39 577 39 566 l 76 535 l 79 535 l 111 512 l 113 514 l 139 492 l 141 492 l 174 469 q 221 546 328 546 q 365 546 411 537 q 461 562 486 562 l 486 558 q 486 482 433 418 q 423 405 320 311 l 323 313 q 224 253 125 193 q -21 99 -3 50 q 6 28 13 20 q 20 11 41 2 l 56 7 l 60 6 q 73 -26 104 -41 l 119 -35 q 186 -57 268 -57 q 318 -57 406 -45 q 501 -31 543 -30 q 586 -28 657 -31 q 743 -34 769 -34 q 794 -34 815 -23 q 824 -4 824 12 q 824 52 756 120 l 739 108 q 722 132 694 162 z"},"{":{"x_min":0,"x_max":789,"ha":789,"o":"m 664 726 l 671 727 l 679 718 l 681 708 q 681 679 644 640 q 588 646 550 646 q 471 646 443 619 q 421 598 421 545 q 421 534 422 506 q 424 478 424 461 q 424 369 314 297 q 272 269 239 260 l 233 258 l 239 258 q 320 247 374 207 q 424 170 424 119 q 424 106 420 72 q 415 37 415 14 q 415 -34 508 -51 q 576 -59 644 -67 q 671 -106 681 -150 l 671 -164 l 664 -160 l 653 -173 q 571 -165 551 -115 l 433 -117 q 349 -119 318 -87 q 295 -63 295 -8 q 295 2 296 24 q 297 45 297 56 q 297 126 266 164 q 247 188 188 205 q 141 217 93 230 q 48 248 48 279 q 48 293 52 302 l 61 309 q 74 310 97 306 q 120 303 131 303 q 269 303 287 408 q 298 505 310 603 q 353 708 551 708 q 581 748 625 748 q 631 748 654 742 z m 624 769 q 573 769 530 728 q 480 728 470 728 l 473 728 q 330 717 288 628 q 274 596 262 458 q 254 357 194 335 q 169 325 146 325 q 134 325 110 328 q 85 332 69 332 q 45 332 30 317 q 16 302 16 278 q 16 222 68 212 l 66 213 q 60 213 83 209 q 94 189 101 183 q 110 174 130 170 l 129 171 q 168 163 245 142 q 262 112 264 40 q 266 -39 274 -66 q 291 -119 349 -132 q 381 -183 488 -183 q 507 -183 540 -181 q 574 -179 586 -179 l 595 -183 q 612 -205 646 -220 q 679 -236 708 -236 q 728 -236 752 -222 q 775 -209 775 -190 q 775 -157 729 -92 l 688 -84 l 666 -49 q 628 -40 509 -28 l 511 0 q 512 6 513 17 q 519 82 519 82 q 519 127 470 170 q 446 191 383 230 q 439 264 476 313 q 519 369 519 427 q 519 451 511 473 l 513 473 q 507 513 509 521 l 516 546 q 538 581 622 581 q 650 581 721 574 q 761 615 775 663 q 776 688 711 730 q 650 769 624 769 z"},"9":{"x_min":0,"x_max":804,"ha":804,"o":"m 555 433 q 563 471 563 484 q 563 548 528 584 q 492 621 427 621 q 414 621 388 616 q 363 612 350 612 q 290 612 240 591 q 172 564 172 512 q 172 504 176 487 q 180 470 180 462 q 180 455 178 439 q 175 423 175 416 q 175 381 214 356 q 249 335 286 335 q 306 335 346 343 q 385 351 406 351 q 501 351 555 399 q 559 399 571 405 q 567 419 555 433 z m 144 117 q 159 78 199 78 q 214 78 242 88 q 270 97 286 97 q 400 97 471 150 q 551 209 551 318 q 505 288 412 269 q 332 253 264 253 q 149 253 100 306 q 54 356 54 467 q 54 478 48 502 q 42 526 42 538 q 42 612 100 647 q 145 673 230 679 q 296 680 363 681 q 382 681 424 691 q 467 701 490 701 q 589 701 643 646 q 697 592 697 493 q 697 463 694 404 q 690 344 690 313 q 690 157 539 78 q 419 15 244 15 q 204 -16 168 -16 q 167 -16 138 -6 l 124 16 l 114 13 l 101 26 l 100 42 q 98 84 130 110 q 134 107 144 117 z m 161 172 q 118 134 102 112 q 75 78 68 37 q 69 13 136 -34 q 202 -80 231 -80 q 275 -80 321 -48 q 456 -45 580 3 q 735 64 769 167 q 782 204 782 249 q 782 266 780 300 q 778 335 778 354 q 778 368 784 400 q 790 432 790 448 q 790 565 697 645 q 608 722 489 722 q 463 722 421 714 q 371 704 354 702 q 278 699 201 695 q 111 689 68 657 q 11 616 11 520 q 11 426 24 382 q 43 310 105 274 l 103 275 q 124 260 168 231 l 165 232 q 226 190 326 190 q 400 190 493 209 q 442 140 331 122 l 333 122 q 331 122 280 120 q 248 118 231 110 l 229 121 l 224 117 l 224 129 q 206 115 193 101 q 172 123 166 163 l 161 160 z m 534 415 q 497 384 457 377 q 441 374 371 374 q 360 374 331 364 q 302 355 288 356 l 273 357 q 269 365 269 374 q 269 390 273 405 l 273 404 q 274 412 274 420 q 274 428 270 444 q 266 461 266 469 q 266 542 430 547 q 439 548 458 553 q 478 558 489 558 q 500 558 514 555 q 531 527 531 484 q 531 476 528 460 q 524 444 524 436 q 524 435 534 415 z m 113 123 z"}," ":{"x_min":0,"x_max":863,"ha":863,"o":""},"I":{"x_min":0,"x_max":538,"ha":538,"o":"m 294 119 q 302 109 335 101 q 362 95 381 95 q 381 95 400 102 l 398 107 l 408 107 q 432 66 430 37 l 429 27 l 419 20 l 410 29 q 364 30 271 25 q 255 23 199 10 q 155 -1 125 -1 q 77 -1 44 19 l 35 14 l 26 24 l 25 37 q 25 68 45 95 q 55 90 53 87 l 68 74 q 94 71 94 71 q 141 71 160 93 q 150 221 150 362 q 150 489 159 583 q 151 593 117 601 q 88 608 70 608 q 70 608 51 601 l 54 597 q 54 597 45 596 q 25 630 25 666 q 25 678 35 683 q 37 676 44 672 q 90 673 183 678 q 200 680 255 692 q 300 702 330 702 q 376 702 410 683 l 419 688 l 428 678 l 430 666 q 430 638 409 607 q 398 611 400 615 l 384 628 l 358 630 q 307 634 293 607 q 301 467 301 337 q 301 218 294 119 z m 415 717 l 406 711 q 370 723 330 723 q 283 723 198 711 q 101 698 65 695 l 66 717 q -8 690 -8 670 q -8 623 24 575 l 65 575 q 73 554 86 532 l 125 532 q 125 494 124 388 q 123 297 123 244 q 124 164 128 99 l 104 93 l 108 95 q 70 108 38 131 q -6 76 -6 37 q -6 8 39 -14 l 46 -9 l 56 -13 q 69 -41 101 -57 l 109 -52 q 142 -65 189 -65 q 229 -65 308 -50 q 386 -35 428 -35 l 456 -35 l 470 -45 q 494 -43 515 -33 q 524 -16 524 -3 q 524 35 491 86 l 450 86 q 442 106 429 128 l 389 128 q 384 191 387 289 q 392 428 392 450 q 392 511 386 560 q 400 566 426 566 q 430 566 430 564 q 429 560 429 559 l 451 547 l 450 547 l 486 535 q 524 590 524 630 q 524 651 478 674 l 469 668 q 463 669 453 691 q 448 700 415 717 z"},"H":{"x_min":0,"x_max":904,"ha":904,"o":"m 784 675 q 797 650 797 623 q 797 256 783 35 q 786 32 790 20 l 773 8 q 679 13 645 54 q 652 57 655 56 q 658 79 658 101 q 658 292 635 355 l 625 354 q 519 345 414 335 q 291 324 203 326 l 204 325 l 201 326 l 203 326 l 200 328 l 200 326 q 195 313 188 286 q 170 147 176 71 l 179 29 q 179 29 190 25 q 162 -5 107 -5 q 99 -5 63 1 l 50 19 q 49 22 55 27 q 43 54 43 80 q 43 588 59 668 q 52 675 50 683 l 53 692 q 60 695 78 695 q 104 695 140 680 q 175 666 190 648 q 179 644 179 645 q 174 626 174 606 q 174 458 201 407 q 289 417 376 428 q 485 440 555 440 q 597 440 634 436 q 660 485 660 640 q 660 655 656 671 l 654 671 l 645 674 q 669 707 741 707 q 747 707 776 703 l 790 685 q 792 682 784 675 z m 740 728 q 651 728 608 669 q 626 657 627 657 q 630 653 630 635 q 630 518 611 460 l 569 461 q 512 462 422 451 q 304 436 276 434 q 268 502 268 577 q 268 588 276 591 q 285 594 295 597 q 262 637 192 676 q 118 717 70 717 q 70 717 34 711 l 19 685 q 22 677 25 661 l 23 435 q 11 174 11 93 q 11 38 21 15 q 36 -22 81 -25 q 94 -68 169 -68 q 241 -68 309 4 q 281 5 270 3 l 270 20 q 270 192 284 252 l 304 255 l 315 262 q 372 263 466 274 q 582 288 616 291 q 617 270 624 207 q 629 154 629 123 q 629 105 628 88 l 626 74 q 616 76 593 76 q 626 31 702 -12 q 777 -55 829 -55 q 829 -55 865 -48 l 885 -19 q 883 -13 876 -4 q 890 133 890 573 q 890 605 880 630 q 887 636 887 642 q 887 656 859 671 q 837 682 821 685 q 825 707 791 719 q 765 728 740 728 z m 28 38 q 26 37 26 37 l 26 37 q 26 38 28 38 z"},"4":{"x_min":0,"x_max":898,"ha":898,"o":"m 164 276 q 200 269 240 269 q 364 269 499 301 l 499 305 l 506 307 q 513 335 513 363 q 513 374 515 434 q 516 478 515 506 q 513 546 508 576 q 389 467 339 422 q 243 338 164 276 z m 654 619 q 654 386 631 303 q 671 299 711 295 q 764 289 783 271 q 790 241 790 241 q 790 241 786 223 q 762 209 742 209 q 686 209 638 224 q 657 175 657 78 q 657 28 593 28 q 521 28 509 58 l 519 61 q 517 102 516 144 q 514 194 506 225 q 346 191 210 191 q 136 191 110 197 q 50 210 50 257 q 50 284 63 303 q 77 311 94 331 q 117 358 122 363 q 389 610 518 683 q 534 715 614 715 q 630 715 643 704 q 654 666 654 619 z m 605 737 q 524 737 384 622 q 282 534 181 446 l 181 447 q 109 393 78 361 q 19 300 19 249 q 19 204 65 187 l 63 188 l 85 181 q 103 154 128 144 l 125 145 q 182 127 273 127 q 387 127 484 144 l 485 97 l 485 77 l 480 56 q 489 34 503 26 q 508 24 541 14 q 580 -37 666 -37 q 751 -37 751 60 q 751 88 740 151 q 752 152 776 148 q 799 145 809 145 q 884 145 884 199 q 884 228 866 246 q 847 265 818 267 l 821 265 l 818 266 q 801 290 792 297 q 779 307 755 309 l 759 308 q 755 308 746 310 q 738 312 735 313 q 748 498 748 575 q 748 615 739 647 q 741 651 741 655 q 741 671 715 683 q 695 692 678 694 q 680 714 651 727 q 628 737 605 737 z m 481 374 q 481 349 478 323 l 468 320 l 468 316 q 404 302 344 296 q 390 334 481 416 z"},"~":{"x_min":0,"x_max":998,"ha":998,"o":"m 615 198 q 534 198 473 235 q 427 268 382 302 q 330 339 272 339 q 222 339 186 306 q 151 274 151 228 q 151 209 159 189 q 124 177 60 177 q 41 177 30 187 l 44 195 q 46 312 86 360 q 131 414 243 414 q 358 414 435 377 q 468 362 535 309 q 582 272 623 272 q 677 272 720 302 q 762 332 762 380 q 762 401 754 422 q 801 435 854 435 q 873 435 888 426 q 881 420 871 417 q 876 282 806 235 q 752 198 615 198 z m 965 364 l 984 383 q 970 405 960 407 l 935 412 l 921 414 l 911 413 l 916 419 l 921 426 q 901 456 859 456 q 797 456 716 435 q 728 409 728 395 q 728 293 623 293 q 622 293 599 297 q 494 381 435 405 q 363 435 243 435 q 122 435 68 381 q 15 327 13 205 l -9 197 q 8 167 19 164 l 45 157 l 54 155 q 77 113 116 113 q 194 113 258 135 q 246 165 246 178 q 246 220 270 248 q 294 275 335 275 q 374 275 424 239 q 502 183 526 171 q 599 134 691 134 q 833 134 891 176 q 960 225 965 364 z"},"D":{"x_min":0,"x_max":946,"ha":946,"o":"m 704 427 q 702 508 634 553 q 576 591 492 591 q 455 591 400 583 q 354 577 309 570 q 286 592 233 592 q 207 592 196 585 q 201 578 201 578 q 201 578 193 574 q 185 529 185 484 q 185 454 182 380 q 180 307 180 269 q 180 163 194 101 l 193 101 l 201 95 l 196 90 q 205 81 233 81 q 294 81 309 107 l 341 106 q 481 103 576 144 q 703 198 704 320 z m 61 668 l 56 675 l 72 689 l 96 691 q 134 694 204 681 q 275 668 305 649 q 453 674 532 674 q 666 674 747 618 q 839 553 839 424 q 839 219 841 306 q 840 231 822 189 q 784 100 592 56 q 448 23 308 27 q 262 -5 153 -5 q 110 -5 68 8 l 56 22 l 59 26 q 44 52 44 90 q 44 159 50 296 q 56 434 56 503 q 56 638 61 668 z m 18 189 l 18 190 q 13 156 13 87 q 13 48 26 24 l 25 22 l 43 -6 q 58 -13 88 -20 l 106 -48 q 163 -70 215 -69 q 319 -67 384 -37 l 391 -37 q 468 -37 573 -19 l 571 -19 q 752 9 814 41 q 933 100 933 241 l 933 381 q 933 527 799 617 q 681 696 528 696 q 467 696 314 672 q 287 688 204 701 q 131 713 91 713 q 39 713 25 677 l 29 662 q 29 338 18 189 z m 673 313 q 673 218 587 175 q 539 151 418 133 l 419 133 q 360 125 289 130 l 280 119 l 279 433 q 279 489 284 519 l 299 529 q 330 527 356 504 q 387 508 490 523 l 489 523 q 520 527 553 527 q 618 527 643 506 q 673 482 673 417 z"},"^":{"x_min":0,"x_max":985,"ha":985,"o":"m 874 340 q 856 331 856 331 q 768 331 726 358 q 728 360 734 361 q 741 362 753 370 q 740 398 611 489 q 444 607 443 609 q 444 615 435 625 q 380 598 168 343 l 164 344 l 168 342 q 125 324 75 326 l 41 328 l 26 339 q 56 365 212 522 q 327 638 409 686 l 413 685 l 426 698 q 450 703 450 703 l 478 702 q 572 638 684 531 q 716 500 874 340 z m 163 347 l 161 347 l 161 346 q 162 346 163 345 z m 440 733 q 337 670 284 617 l 284 618 q 196 532 18 364 l 19 365 l -8 346 q 3 310 56 305 l 55 303 q 66 263 139 263 q 156 263 195 272 q 234 281 250 280 l 253 285 l 280 296 l 268 303 q 298 333 408 462 l 406 462 l 431 490 l 431 489 q 455 518 483 543 q 512 519 598 463 q 674 415 711 379 l 681 358 q 710 340 754 323 l 744 315 q 771 298 816 283 q 865 266 898 266 q 908 266 915 268 q 942 274 948 277 q 961 283 971 301 q 955 318 941 326 l 944 323 q 857 410 771 497 q 669 599 586 658 q 543 689 495 721 q 479 721 463 721 q 435 723 440 733 z"},"0":{"x_min":0,"x_max":795,"ha":795,"o":"m 543 377 q 543 396 550 436 q 556 476 556 496 q 556 550 526 586 q 493 623 440 623 q 426 623 403 618 q 377 612 366 611 q 272 604 233 584 q 171 552 171 469 q 171 449 178 408 q 186 368 186 349 q 186 331 178 290 q 171 250 171 230 q 171 176 203 139 q 235 102 288 102 q 303 102 329 109 q 355 116 366 116 q 459 124 496 143 q 556 174 556 255 q 556 276 550 318 q 543 359 543 377 z m 247 20 q 138 20 90 80 q 46 133 46 244 q 46 264 52 303 q 59 342 59 361 q 59 380 52 420 q 46 460 46 480 q 46 583 92 630 q 129 668 208 678 q 288 683 368 688 q 384 689 423 698 q 458 706 479 706 q 688 706 688 480 q 688 460 680 422 q 673 385 673 368 q 673 349 680 308 q 688 268 688 247 q 688 118 607 74 q 554 46 408 42 q 381 41 328 30 q 275 20 247 20 z m 781 209 q 781 229 774 268 q 766 307 766 326 q 766 343 774 381 q 781 419 781 438 q 781 541 740 601 l 740 600 q 707 651 625 690 q 547 727 483 727 q 445 727 381 718 q 302 706 279 705 l 280 705 q 132 696 79 656 q 15 606 15 467 q 15 447 20 410 q 26 372 26 354 q 26 335 20 297 q 15 259 15 240 q 15 114 98 35 q 181 -44 310 -44 q 310 -44 351 -41 l 350 -42 q 449 -33 548 -24 q 659 -9 712 34 q 781 90 781 209 z m 511 374 q 511 356 518 316 q 526 277 526 257 q 526 184 474 158 q 443 143 359 138 q 348 137 322 130 q 297 123 281 123 q 265 152 265 197 q 265 215 273 252 q 281 290 281 308 q 281 326 273 366 q 265 407 265 428 q 265 494 309 521 q 336 537 410 546 l 409 546 q 411 546 456 554 q 484 559 503 559 l 510 558 q 525 530 525 485 q 525 467 518 430 q 511 392 511 374 z"},"F":{"x_min":0,"x_max":795,"ha":795,"o":"m 666 688 l 679 676 q 679 666 688 630 q 679 616 664 604 l 636 602 q 622 602 587 610 q 552 617 534 617 q 468 617 362 598 q 232 574 191 570 l 186 574 l 179 570 l 179 571 l 177 536 q 173 456 189 405 q 236 406 343 421 q 443 435 497 435 q 533 435 568 428 l 566 431 l 573 432 q 594 429 594 391 q 594 366 583 355 q 575 351 544 351 q 487 351 367 335 q 252 320 190 321 q 168 220 174 67 l 175 29 l 184 27 q 163 -4 104 -4 q 94 -4 61 2 l 48 20 l 51 28 q 38 112 38 252 q 38 308 40 413 q 43 518 43 561 q 43 624 53 673 q 68 679 87 680 q 100 681 124 679 q 148 677 158 677 l 247 677 q 293 677 386 690 q 478 703 524 703 q 596 703 651 683 q 653 684 666 688 z m 521 724 q 451 724 310 713 q 169 702 96 702 q 60 702 23 685 q 13 638 13 572 l 13 132 q 13 124 12 106 q 11 88 11 79 q 11 -19 79 -24 q 79 -24 86 -45 q 109 -68 168 -68 q 243 -68 295 6 l 268 6 l 268 15 q 268 143 280 258 q 367 259 454 275 l 453 275 q 541 285 629 285 q 688 285 688 355 q 688 374 672 394 q 655 413 637 413 q 630 413 624 410 q 609 446 570 453 q 559 456 494 456 q 450 456 383 446 q 290 433 273 431 l 271 507 q 328 515 441 535 l 440 535 q 542 553 604 553 q 618 553 648 545 q 677 537 689 538 l 745 541 q 753 550 753 552 q 772 564 781 587 q 776 611 771 635 q 765 654 731 670 l 714 664 q 713 664 703 690 q 700 698 669 712 l 651 706 q 592 724 521 724 z"},"`":{"x_min":0,"x_max":409,"ha":409,"o":"m 175 789 l 185 794 q 215 770 243 713 q 276 647 294 626 q 288 620 277 620 q 193 620 132 675 q 78 730 24 785 q 32 790 43 791 q 51 791 65 790 q 79 789 84 789 q 178 789 175 789 z m 48 813 q 24 813 -8 795 q -7 773 6 766 l 3 770 l 45 724 q 59 705 83 687 l 81 688 q 137 640 156 625 q 202 589 236 572 q 249 566 319 558 l 314 558 q 326 557 339 557 q 367 557 395 588 l 385 595 l 384 592 q 365 615 328 687 q 299 742 255 778 q 246 776 240 773 q 223 796 193 820 q 167 809 129 809 q 115 809 88 811 q 61 813 48 813 z"},"k":{"x_min":0,"x_max":835,"ha":835,"o":"m 711 22 l 706 24 l 696 13 l 679 10 q 652 10 605 24 q 554 38 538 54 q 514 49 396 128 q 286 200 258 229 q 214 193 185 179 q 162 132 165 57 l 166 28 l 169 31 l 180 30 q 162 -4 98 -4 q 87 -4 59 2 l 48 20 l 50 30 q 36 56 36 97 q 36 521 54 703 q 47 712 46 721 l 62 733 q 95 731 127 720 q 168 706 180 683 l 169 683 l 173 681 q 169 655 169 591 q 169 358 186 269 q 284 353 383 438 q 515 546 597 546 q 644 546 661 529 l 661 528 q 661 526 654 522 q 577 466 499 411 q 411 346 350 292 q 387 247 535 160 q 676 78 711 22 z m 769 19 q 769 19 754 25 l 759 25 l 761 25 q 607 135 450 248 q 597 357 755 481 l 755 490 q 747 503 728 514 q 708 524 693 524 l 693 533 q 674 567 601 567 q 522 567 446 517 q 412 494 318 409 l 319 410 l 269 368 q 260 528 263 569 l 265 619 l 288 619 q 279 635 268 649 l 269 660 q 269 666 258 660 q 256 659 258 657 q 260 655 261 655 l 258 660 l 258 660 q 233 683 205 695 l 206 702 q 206 708 195 702 q 194 701 196 700 q 197 698 199 698 l 195 702 l 195 702 q 142 755 69 755 q 69 755 31 747 l 15 719 q 21 695 21 696 q 21 596 14 394 q 6 193 6 93 q 6 41 18 15 q 35 -22 79 -25 q 92 -67 159 -67 q 247 -67 288 8 l 259 8 l 259 17 q 259 75 275 123 l 315 150 l 336 137 l 335 137 q 363 116 399 94 l 398 94 q 434 67 487 40 q 534 17 580 -5 q 595 -15 631 -31 q 652 -38 693 -47 q 712 -49 704 -48 q 724 -54 744 -54 q 757 -54 781 -48 q 805 -41 821 -42 q 795 -3 775 17 l 775 5 z m 761 25 q 765 23 775 17 q 773 25 763 25 z m 699 68 q 711 68 713 59 q 709 60 699 68 z m 199 -8 q 199 -5 200 -4 q 199 -5 199 -8 z m 638 -5 z m 700 -48 z m 200 -3 q 201 -2 201 -2 q 201 -3 200 -3 z"},"u":{"x_min":0,"x_max":768,"ha":768,"o":"m 654 511 q 660 480 660 450 q 660 450 662 318 q 663 213 661 149 q 660 58 653 24 l 655 18 l 636 8 q 608 9 575 17 q 534 27 520 42 q 530 46 532 44 q 535 41 535 41 l 535 42 q 531 72 520 88 q 482 38 415 22 q 374 12 290 12 q 275 12 242 6 q 209 0 193 0 q 57 0 57 120 q 57 158 70 188 q 48 227 48 320 q 48 342 43 388 q 38 433 38 455 q 38 482 49 508 l 46 515 l 64 527 q 154 520 180 489 l 171 485 l 169 449 q 167 415 173 330 q 181 234 193 227 q 180 169 180 146 q 180 120 203 104 q 226 87 254 87 q 270 87 302 92 q 334 97 351 97 q 457 97 511 164 l 514 164 q 522 205 522 267 q 522 300 526 387 q 529 463 528 507 l 531 510 q 531 510 521 511 q 545 537 601 537 q 648 537 656 517 z m 599 558 q 523 558 468 490 l 496 489 l 496 486 q 496 249 484 175 q 437 125 371 120 l 375 120 l 366 119 q 334 118 274 110 q 280 142 291 195 l 276 201 q 263 360 263 422 l 264 432 l 281 442 q 252 476 203 504 q 154 533 109 543 l 110 543 q 110 545 100 545 l 101 544 q 70 548 70 548 q 31 548 17 519 q 8 499 8 454 q 8 245 38 187 l 29 153 l 28 144 l 26 120 q 21 25 110 -7 q 131 -39 181 -54 q 223 -67 269 -64 l 293 -62 l 323 -59 q 354 -55 393 -55 q 415 -55 435 -52 l 434 -53 q 504 -44 558 -9 q 590 -37 641 -48 l 640 -48 q 679 -56 695 -56 q 740 -56 751 -17 l 748 -21 l 746 -20 q 757 53 757 168 q 757 208 756 285 q 754 362 754 396 q 754 403 750 427 q 746 451 746 458 q 746 467 750 465 q 750 509 686 514 q 678 558 599 558 z"},"]":{"x_min":0,"x_max":483,"ha":483,"o":"m 375 569 q 375 521 376 333 q 377 187 376 96 q 375 -33 369 -139 q 362 -144 347 -144 q 336 -144 314 -140 q 291 -137 283 -137 q 252 -137 195 -156 q 138 -175 107 -175 q 66 -175 40 -153 l 33 -158 l 24 -150 l 24 -139 q 22 -114 41 -75 q 50 -79 50 -79 q 50 -78 50 -87 q 50 -92 68 -99 q 86 -106 93 -105 q 148 -102 183 -80 q 240 -44 251 -39 q 258 6 258 103 q 258 193 256 372 q 253 551 253 641 l 251 641 q 247 655 220 655 q 196 655 146 648 q 96 642 69 642 q 69 642 49 635 l 50 632 l 51 629 l 41 632 q 23 688 24 722 l 33 723 q 33 723 40 711 l 99 709 q 133 709 193 726 q 253 744 284 744 q 340 744 361 717 q 378 697 378 650 q 378 638 376 611 q 375 584 375 569 z m 314 764 l 315 764 l 288 766 q 253 768 193 749 q 133 730 101 731 l 61 732 q 54 743 38 757 l 24 746 l 25 744 l -8 743 l -8 711 q -8 678 14 620 q 35 610 66 609 l 76 578 q 100 566 135 566 l 190 565 l 174 575 q 179 575 198 577 q 213 578 221 577 q 221 499 224 344 q 226 188 226 110 q 226 19 221 -29 q 219 -33 215 -40 q 208 -44 195 -51 q 140 -84 98 -82 l 90 -77 q 87 -86 83 -81 l 83 -66 q 67 -62 28 -35 q 19 -54 8 -91 q -2 -128 -9 -144 q -2 -171 28 -192 l 41 -183 l 54 -188 q 62 -214 90 -235 l 104 -225 q 133 -239 171 -239 q 200 -239 244 -223 q 292 -206 314 -204 l 348 -201 l 364 -202 q 400 -207 414 -207 q 433 -207 454 -198 l 465 -176 q 457 -138 457 -10 q 457 92 463 291 q 469 490 469 525 q 469 537 470 563 q 471 589 471 602 q 471 701 401 717 q 388 757 314 764 z m 93 -83 z m 155 -126 z m 90 -83 z m 153 -126 z m 181 -60 l 184 -59 l 183 -59 q 181 -59 181 -60 z"},"U":{"x_min":0,"x_max":911,"ha":911,"o":"m 791 677 q 803 646 803 602 q 803 548 790 443 q 775 326 760 296 l 761 297 q 773 232 773 191 q 773 75 646 43 q 593 30 423 30 q 400 30 350 18 q 299 7 273 7 q 68 7 68 190 q 68 202 80 280 q 60 318 49 435 q 42 519 42 596 q 42 643 54 673 q 50 679 50 684 l 53 693 q 60 696 78 696 q 106 696 139 683 q 176 669 191 649 l 183 644 q 177 615 177 587 q 177 554 188 456 q 198 359 198 319 q 198 297 196 282 l 206 278 q 197 222 197 198 q 197 89 320 89 q 350 89 410 100 q 471 110 503 110 q 555 110 597 138 q 645 169 645 219 q 645 251 634 304 l 644 309 q 665 408 665 617 q 665 644 660 671 l 659 671 l 650 675 q 678 708 746 708 q 752 708 781 703 l 795 686 q 796 683 791 677 z m 745 729 q 659 729 611 671 l 630 657 l 633 616 q 634 594 631 557 q 627 512 626 498 l 626 499 q 626 439 614 320 q 614 320 604 317 q 599 315 599 311 q 599 313 605 288 l 605 289 q 617 232 614 219 q 600 164 567 146 q 544 133 495 133 q 491 133 481 133 q 471 133 466 133 q 436 133 415 129 q 413 129 362 116 q 331 109 309 110 l 299 111 q 291 129 291 150 q 291 164 297 198 q 302 228 300 246 l 289 252 q 271 347 271 569 l 274 590 l 293 602 q 259 643 190 680 q 121 718 70 718 q 70 718 34 711 l 19 686 q 10 644 10 599 q 10 359 48 279 q 38 182 38 191 q 38 76 130 6 q 214 -58 330 -58 q 344 -58 358 -57 l 378 -55 q 398 -54 436 -44 q 475 -35 493 -34 q 558 -32 624 -30 q 714 -25 767 -5 q 838 22 858 82 q 866 108 866 138 q 866 157 861 195 q 856 233 856 254 q 856 248 865 283 l 864 281 l 865 286 l 866 292 l 870 306 l 874 343 l 878 369 q 884 396 891 450 q 898 521 898 564 q 898 598 886 633 q 888 639 888 643 q 888 675 826 686 q 830 707 796 720 q 770 729 745 729 z m 886 637 l 885 635 l 885 636 q 886 636 886 637 z"},"o":{"x_min":0,"x_max":784,"ha":784,"o":"m 543 276 q 543 284 546 300 q 549 317 549 326 q 549 448 430 448 q 416 448 390 443 q 363 438 350 438 q 262 438 222 415 q 170 384 170 304 q 170 296 173 280 q 176 263 176 255 q 176 246 173 228 q 170 210 170 201 q 170 85 291 85 q 305 85 332 90 q 359 96 373 96 q 549 96 549 230 q 549 238 546 254 q 543 269 543 276 z m 421 22 q 392 22 336 14 q 279 5 249 5 q 46 5 46 202 q 46 213 50 234 q 55 255 55 265 q 55 278 50 304 q 46 331 46 345 q 46 431 100 469 q 141 497 225 504 q 294 509 363 513 q 363 513 414 522 q 445 528 467 528 q 564 528 620 479 q 676 430 676 334 q 676 323 672 301 q 668 279 668 269 q 668 258 672 235 q 676 212 676 200 q 676 96 596 54 q 537 22 421 22 z m 714 18 l 713 17 q 770 64 770 160 q 770 174 771 207 q 772 240 772 257 q 772 388 714 443 l 715 441 q 690 467 653 483 l 653 484 q 594 549 469 549 q 371 549 264 535 q 113 514 69 475 l 69 476 q 15 430 15 345 l 15 192 q 15 84 111 10 q 200 -59 311 -59 q 404 -59 521 -42 q 672 -19 714 18 z m 511 274 q 511 267 514 252 q 518 238 518 231 q 518 125 406 118 l 408 118 q 388 119 350 116 q 345 116 321 110 q 304 106 291 106 l 274 107 q 264 127 264 161 q 264 169 267 186 q 270 203 270 212 q 270 223 268 229 l 268 227 q 264 246 264 262 q 264 314 283 339 l 280 337 q 304 362 351 370 q 371 373 430 374 q 439 374 460 380 q 480 385 491 384 l 506 383 q 518 360 518 326 q 518 317 514 300 q 511 282 511 274 z m 228 124 l 229 122 l 228 123 z m 290 82 l 291 80 l 290 81 z"},"N":{"x_min":0,"x_max":905,"ha":905,"o":"m 784 681 q 798 654 798 627 q 798 347 778 42 l 786 29 l 780 17 l 764 14 q 728 14 685 26 q 635 40 616 62 q 468 234 178 584 q 169 488 168 348 q 169 537 169 111 q 169 73 173 35 l 170 35 l 181 31 q 157 1 97 1 q 84 1 61 6 l 50 23 q 49 27 55 32 q 43 58 43 87 q 43 562 58 673 l 53 683 l 64 695 l 85 697 q 189 697 273 632 q 335 584 408 481 q 524 316 526 313 q 543 292 583 267 q 615 248 646 229 l 643 228 q 665 291 665 605 q 665 641 661 677 l 663 677 q 662 677 653 681 q 678 713 738 713 q 748 713 776 708 l 790 691 q 791 690 784 681 z m 736 734 q 696 734 656 711 l 633 700 l 628 691 l 614 677 l 630 666 l 633 611 q 642 398 620 276 l 616 281 l 618 279 q 576 334 496 448 l 496 447 q 460 510 349 620 l 350 619 q 336 634 298 651 q 295 652 286 662 l 288 661 q 265 687 217 699 q 177 705 136 712 l 138 711 q 138 714 132 714 q 122 714 123 714 q 92 719 81 719 q 33 719 21 683 l 25 670 q 25 573 19 380 q 13 186 13 89 q 13 56 21 35 q 18 29 18 23 q 18 6 42 -8 q 62 -20 81 -20 q 94 -63 160 -63 q 213 -63 260 -29 q 264 -31 266 -30 q 269 -29 268 -22 l 286 -3 l 265 3 l 264 61 q 267 184 268 430 q 373 302 589 51 l 589 53 q 603 35 645 14 l 651 8 l 651 10 q 671 -17 731 -35 q 782 -50 824 -50 q 879 -50 880 -9 q 870 6 871 7 q 891 293 891 575 q 891 609 880 637 q 883 644 883 650 q 883 679 821 690 q 824 713 789 725 q 764 734 736 734 z m 28 43 q 26 42 26 42 l 26 42 q 26 43 28 43 z m 25 40 z"},"+":{"x_min":0,"x_max":984,"ha":984,"o":"m 835 364 q 876 364 876 322 q 876 295 854 288 l 835 288 l 835 290 q 798 288 739 290 q 663 292 643 292 q 612 292 523 289 q 527 230 527 134 q 527 109 521 68 l 525 69 l 523 54 q 500 33 448 33 q 425 33 411 43 l 408 57 l 413 58 q 404 85 404 151 q 404 221 411 277 q 350 268 263 268 q 151 268 94 280 l 95 278 q 78 279 63 293 q 56 321 56 321 q 56 338 63 346 l 76 354 l 95 354 l 95 352 q 107 352 123 352 l 164 351 l 276 349 l 410 352 q 405 382 405 408 l 405 485 q 405 544 413 574 l 409 572 l 411 587 q 430 610 486 610 q 508 610 521 597 l 524 583 l 520 583 q 535 525 521 364 q 618 373 680 373 q 783 373 836 361 z m 618 393 l 620 455 q 622 513 622 507 q 622 583 556 587 q 541 631 483 631 l 465 629 q 412 626 385 599 q 382 591 379 567 q 367 472 376 371 q 322 370 230 373 q 123 377 85 377 q 25 377 25 318 q 25 292 44 275 q 64 258 90 257 q 107 232 116 225 q 130 215 156 214 l 156 215 q 236 198 375 205 l 374 122 q 373 62 379 46 q 390 15 439 12 q 436 -9 465 -21 q 487 -31 511 -31 l 536 -28 l 535 -29 q 585 -25 612 0 q 620 16 619 48 l 618 48 q 629 117 618 226 q 674 228 763 226 q 878 224 908 224 q 970 224 970 284 q 970 308 950 324 q 930 341 905 343 q 874 396 714 396 q 682 396 618 393 z"},"G":{"x_min":0,"x_max":1015,"ha":1015,"o":"m 729 290 q 659 278 536 278 q 514 278 490 282 l 494 285 l 491 285 l 494 359 q 609 371 705 371 q 773 371 841 364 q 890 322 890 163 q 890 97 881 85 l 866 78 l 860 80 q 813 24 677 24 q 652 24 602 30 q 552 37 528 37 q 500 37 438 24 q 377 11 346 11 q 213 11 137 73 q 55 141 55 271 l 55 429 q 55 589 223 644 q 319 675 526 675 q 548 675 603 692 q 658 709 689 707 q 818 698 861 633 l 878 637 l 899 620 q 903 571 878 541 l 880 537 q 873 537 863 530 q 853 524 849 523 q 848 528 834 522 q 811 566 753 594 q 700 619 646 619 q 620 619 573 608 q 526 597 505 596 q 360 590 292 562 q 182 517 182 398 q 182 240 210 184 q 253 97 394 97 q 416 97 460 106 q 503 116 523 116 q 537 116 570 110 q 603 103 620 103 q 701 103 733 149 l 743 144 q 753 173 753 173 q 753 263 729 290 z m 500 286 l 499 287 l 498 286 z m 720 195 l 720 183 q 677 124 619 124 q 602 124 570 131 q 538 138 524 138 q 503 138 460 128 q 416 118 394 118 q 348 118 310 131 q 282 163 277 238 q 276 246 276 356 q 276 467 379 505 q 430 524 576 532 q 595 533 641 545 q 683 555 708 555 q 750 555 776 538 q 801 522 823 484 l 841 496 q 867 471 885 441 l 914 460 q 919 459 958 472 q 996 485 1001 485 l 976 501 q 994 530 994 568 q 994 568 984 596 q 797 737 673 728 l 660 728 l 663 728 q 636 726 582 712 q 528 698 501 697 q 283 689 191 657 q 24 597 24 431 q 24 417 28 377 q 31 344 29 323 l 29 324 q 24 295 24 270 q 24 136 108 65 l 106 65 q 116 56 138 43 q 161 30 170 22 l 169 23 q 251 -53 410 -53 q 445 -53 479 -48 l 478 -48 q 501 -47 573 -31 l 571 -31 q 571 -26 591 -26 q 616 -26 666 -32 q 716 -39 741 -39 q 831 -39 896 -13 q 984 23 984 96 q 984 186 976 228 q 963 307 920 342 l 893 344 q 881 364 858 384 q 785 392 700 392 q 589 392 459 377 l 463 353 q 463 301 460 292 l 429 271 l 455 266 l 455 263 q 454 263 524 258 l 523 250 l 491 229 l 518 224 l 518 221 q 584 218 719 220 z"},"q":{"x_min":0,"x_max":786,"ha":786,"o":"m 531 161 l 530 162 l 529 164 q 540 201 540 333 q 540 347 539 376 q 538 405 538 420 l 539 420 l 530 421 q 503 451 454 451 q 434 451 411 442 q 379 430 371 428 q 314 418 256 407 q 187 387 175 334 q 171 314 173 289 q 176 250 176 246 q 176 235 174 214 q 171 192 171 181 q 171 140 201 110 q 231 81 272 81 q 313 81 344 94 q 346 93 371 93 q 413 93 455 112 q 497 131 523 162 z m 666 503 q 678 475 678 446 q 678 -82 660 -219 q 668 -230 670 -238 l 666 -248 l 654 -251 q 624 -251 589 -237 q 550 -222 534 -201 l 544 -199 q 547 -185 547 -170 q 547 5 526 82 q 461 2 316 2 q 305 2 280 -4 q 255 -9 242 -9 q 109 -9 67 104 q 45 166 45 328 q 45 440 143 476 q 196 495 338 497 l 349 497 q 394 537 453 537 q 506 537 538 493 q 543 502 541 504 q 552 513 558 525 l 561 523 q 589 537 629 537 q 629 537 658 532 l 671 514 q 672 513 666 503 z m 565 550 l 544 565 l 529 536 q 490 558 439 558 q 418 558 385 546 q 352 533 334 518 l 301 519 q 169 523 101 486 q 14 437 14 315 q 14 169 24 131 q 45 53 136 -8 q 191 -44 215 -55 q 255 -72 305 -72 q 334 -72 364 -65 l 360 -67 q 368 -66 379 -62 q 435 -66 509 -41 q 513 -87 515 -178 l 484 -179 q 516 -224 587 -268 q 663 -315 713 -315 q 713 -315 749 -308 l 764 -282 q 764 -280 756 -258 l 754 -257 q 769 -135 772 65 q 773 93 773 393 q 773 428 761 460 q 765 467 765 474 q 765 503 703 515 q 709 556 628 556 q 590 556 565 550 z m 361 114 q 349 114 343 118 q 302 102 273 103 q 264 119 264 140 q 264 151 267 172 q 270 193 270 203 q 270 211 268 228 q 265 245 265 254 q 265 303 295 328 q 318 346 365 353 q 405 359 444 365 q 464 373 506 386 q 509 353 509 352 l 509 309 q 509 196 501 181 q 488 154 439 133 q 396 114 361 114 z m 344 -69 z"},"d":{"x_min":0,"x_max":786,"ha":786,"o":"m 528 432 q 490 468 452 468 q 405 468 371 445 q 183 445 173 298 q 172 290 174 276 q 176 262 176 256 q 176 247 172 226 q 167 206 167 195 q 167 96 273 96 q 314 96 344 107 l 359 106 q 479 106 530 178 l 535 173 q 541 199 541 226 q 541 369 542 330 q 541 393 531 433 z m 666 711 q 679 685 679 656 q 679 564 670 347 q 662 148 664 37 q 671 29 671 23 l 667 14 l 655 11 q 623 11 588 23 q 548 37 534 60 l 545 61 l 546 59 l 539 68 l 553 57 q 546 75 536 101 q 502 43 436 29 q 410 24 311 24 q 296 24 262 16 q 227 7 209 7 q 127 7 84 55 q 42 100 42 183 q 42 206 46 252 q 49 298 49 322 q 49 436 150 483 q 201 506 350 526 q 362 528 394 539 q 422 548 441 548 q 493 548 530 515 q 550 565 550 686 q 550 698 546 711 l 546 710 l 535 711 q 554 747 619 747 q 627 747 658 741 l 671 722 q 672 721 666 711 z m 618 768 q 529 768 499 705 q 505 701 512 696 q 518 692 518 684 q 518 672 509 556 q 475 569 439 569 q 414 569 370 556 q 325 543 303 541 l 304 542 q 115 520 59 444 q 11 379 11 183 q 11 111 44 59 l 44 60 q 70 12 151 -25 q 229 -61 286 -57 l 298 -56 q 389 -46 421 -46 q 516 -46 580 0 q 621 -36 680 -48 l 679 -48 q 696 -53 714 -53 q 714 -53 750 -46 l 765 -20 q 768 -10 756 0 l 756 34 q 756 129 764 318 q 773 507 773 602 q 773 637 761 668 q 765 675 765 682 q 765 700 742 713 q 723 723 703 724 q 687 768 618 768 z m 510 235 q 510 217 508 196 q 472 158 432 143 q 396 129 340 129 q 339 129 316 124 q 292 118 289 117 l 291 118 q 276 116 268 116 q 261 132 261 161 q 261 170 266 188 q 271 205 271 212 q 271 219 268 234 q 266 248 266 255 q 266 305 295 337 l 294 337 q 338 381 448 381 q 474 399 505 403 q 510 374 510 235 z"},"1":{"x_min":0,"x_max":695,"ha":695,"o":"m 374 127 q 412 106 532 106 q 532 106 549 112 l 546 116 l 558 118 q 588 73 588 35 q 576 29 575 29 l 563 38 q 530 36 480 36 l 446 36 q 400 36 370 34 q 340 32 267 18 q 203 7 164 7 q 93 7 49 29 l 38 24 l 28 34 l 26 47 q 26 80 55 106 q 65 101 63 98 q 78 82 138 82 q 201 82 239 103 q 237 115 239 313 q 241 511 244 524 q 226 529 156 534 q 87 539 68 537 q 68 537 69 535 l 63 530 q 35 552 35 589 l 38 600 l 48 607 q 57 603 64 596 q 120 605 176 614 q 250 631 265 669 l 265 672 q 265 693 293 705 q 316 714 340 714 q 360 714 372 703 q 377 691 376 448 q 376 241 374 127 z m 339 736 q 304 736 272 721 q 234 703 234 671 q 225 656 204 647 l 206 648 q 179 636 150 632 l 153 632 q 149 632 76 618 l 54 629 q 29 627 13 618 l 3 592 q 15 536 61 499 l 76 510 q 89 484 124 456 l 148 473 l 209 469 l 209 298 q 209 271 206 205 q 203 146 204 112 q 169 102 143 103 l 114 104 l 118 106 q 103 111 53 139 q -5 89 -5 48 q -5 48 1 24 q 17 7 39 -1 l 49 3 l 58 0 q 68 -31 101 -43 l 111 -39 q 157 -57 224 -57 q 267 -57 352 -43 q 436 -29 480 -29 q 523 -29 613 -26 q 625 -35 639 -35 q 658 -35 674 -26 q 681 -9 681 4 q 681 37 635 105 q 609 95 604 96 q 590 122 573 147 q 567 145 541 146 q 520 147 515 138 l 515 128 q 483 128 482 129 q 469 131 469 146 l 470 619 q 470 658 458 674 q 446 691 406 694 q 406 736 339 736 z m 54 616 l 58 615 q 56 615 52 615 l 51 615 q 52 616 54 616 z"},"5":{"x_min":0,"x_max":801,"ha":801,"o":"m 664 690 l 680 697 l 693 685 l 694 670 q 695 632 655 603 l 648 609 l 649 609 q 611 626 550 626 q 485 626 388 607 q 259 580 229 576 l 226 580 q 224 580 222 578 q 220 576 216 577 l 214 544 q 210 471 228 420 q 250 429 328 429 q 346 429 384 436 q 421 442 440 442 q 575 442 623 377 q 662 323 662 184 q 662 81 537 45 q 468 25 328 25 q 322 25 270 8 q 217 -10 185 -10 q 100 -10 61 48 l 48 45 l 33 62 q 34 104 49 131 q 48 134 48 133 l 49 132 q 54 132 59 138 q 67 148 68 149 q 70 145 83 152 q 127 81 216 81 q 242 81 288 93 q 335 105 360 105 q 429 105 473 130 q 528 162 528 225 q 528 298 499 328 q 470 358 395 358 q 281 358 115 330 q 76 387 76 611 q 76 646 91 671 q 158 684 314 698 q 469 713 539 713 q 609 713 664 690 z m 535 734 q 445 734 301 721 q 154 707 69 689 q 44 646 44 609 q 44 381 98 305 l 133 311 q 143 286 160 263 q 196 270 266 275 q 335 280 368 286 l 365 285 q 448 293 459 293 l 493 290 q 496 264 496 223 q 496 144 390 129 l 393 129 l 383 128 q 383 128 319 128 q 306 128 270 115 q 234 102 215 102 q 215 102 189 106 q 171 126 166 138 q 160 151 161 176 q 149 166 130 145 q 109 167 104 177 q 97 192 99 218 q 46 170 19 140 l 19 152 l 18 154 l 18 134 q 17 134 16 132 q -3 82 1 70 q 12 37 40 22 l 45 23 q 52 15 103 -20 l 108 -20 q 154 -74 256 -74 q 289 -74 330 -60 q 387 -41 398 -38 q 410 -36 544 -24 q 643 -15 690 13 q 756 52 756 139 q 756 295 678 377 q 598 463 440 463 q 420 463 380 456 q 339 450 320 450 q 309 450 308 473 q 309 445 309 507 l 309 514 l 445 542 q 521 563 616 563 q 651 563 670 556 q 684 551 718 530 q 788 580 788 634 q 788 662 736 681 l 725 673 q 726 676 726 679 q 726 704 674 723 l 661 715 q 606 734 535 734 z m 100 156 q 99 158 99 162 l 99 164 q 100 162 100 158 z m 163 118 l 161 119 l 161 121 q 162 121 163 118 z"}}}
